# Wavefront OBJ file written 2026-01-29T15:14:25
o CB_edgeMesh

# points : 109
# lines  : 192

# <points count="109">
v 4.76837e-08 -1.66533e-16 4.1
v 4.1 -1.66533e-16 4.1
v 4.1 -1.249e-16 4.76837e-08
v 4.76837e-08 -1.249e-16 4.76837e-08
v 3.1 -5.82867e-17 4
v 3.1 -2.77556e-16 3.1
v 4 -3.05311e-16 3.1
v 4 -1.249e-16 4
v 3 -5.82867e-17 4
v 2.1 -5.82867e-17 4
v 2.1 -3.33067e-16 3.1
v 3 -3.60823e-16 3.1
v 2 -5.82867e-17 4
v 1.1 -5.82867e-17 4
v 1.1 -3.05311e-16 3.1
v 2 -3.33067e-16 3.1
v 1 -1.249e-16 4
v 0.0999999 -1.249e-16 4
v 0.0999999 -3.33067e-16 3.1
v 1 -3.05311e-16 3.1
v 4 -9.32587e-17 3
v 3.1 -1.23235e-16 3
v 3.1 -3.05311e-16 2.1
v 4 -3.05311e-16 2.1
v 3 -9.32587e-17 3
v 2.1 -1.23235e-16 3
v 2.1 -3.05311e-16 2.1
v 3 -3.05311e-16 2.1
v 1.1 -1.56541e-16 3
v 1.1 -3.33067e-16 2.1
v 2 -3.33067e-16 2.1
v 2 -1.26565e-16 3
v 1 -9.32587e-17 3
v 0.0999999 -1.23235e-16 3
v 0.0999999 -3.05311e-16 2.1
v 1 -3.33067e-16 2.1
v 4 -2.13718e-16 2
v 3.1 -2.13718e-16 2
v 3.1 -1.94289e-16 1.1
v 4 -2.22045e-16 1.1
v 3 -2.13718e-16 2
v 2.1 -2.13718e-16 2
v 2.1 -1.94289e-16 1.1
v 3 -2.22045e-16 1.1
v 1.1 -2.26208e-16 2
v 1.1 -1.66533e-16 1.1
v 2 -1.94289e-16 1.1
v 2 -2.26208e-16 2
v 1 -2.13718e-16 2
v 0.0999999 -2.13718e-16 2
v 0.0999999 -1.94289e-16 1.1
v 1 -1.66533e-16 1.1
v 4 -1.26565e-16 1
v 3.1 -1.56541e-16 1
v 3.1 -1.94289e-16 0.0999999
v 4 -1.94289e-16 0.0999999
v 2.1 -1.23235e-16 1
v 2.1 -1.94289e-16 0.0999999
v 3 -1.94289e-16 0.0999999
v 3 -9.32587e-17 1
v 1.1 -1.56541e-16 1
v 1.1 -1.94289e-16 0.0999999
v 2 -1.94289e-16 0.0999999
v 2 -1.26565e-16 1
v 1 -1.94289e-16 0.0999999
v 1 -9.32587e-17 1
v 0.0999999 -1.23235e-16 1
v 0.0999999 -1.94289e-16 0.0999999
v 4.05 0.15 0.05
v 4.05 0.15 1.05
v 4.05 0.15 2.05
v 4.05 0.15 3.05
v 4.05 0.15 4.05
v 3.05 0.15 3.05
v 3.05 0.15 4.05
v 3.05 0.15 2.05
v 3.05 0.15 1.05
v 3.05 0.15 0.05
v 2.05 0.15 0.05
v 2.05 0.15 1.05
v 2.05 0.15 2.05
v 2.05 0.15 3.05
v 2.05 0.15 4.05
v 1.05 0.15 3.05
v 1.05 0.15 4.05
v 1.05 0.15 2.05
v 1.05 0.15 1.05
v 1.05 0.15 0.05
v 0.05 0.15 0.05
v 0.05 0.15 1.05
v 0.05 0.15 2.05
v 0.05 0.15 3.05
v 0.05 0.15 4.05
v 4.76837e-08 -1.66533e-16 4.05
v 0.05 -1.66533e-16 4.1
v 1.05 -1.66533e-16 4.1
v 2.05 -1.66533e-16 4.1
v 3.05 -1.66533e-16 4.1
v 4.1 -2.13718e-16 4.05
v 4.1 -2.13718e-16 3.05
v 4.1 -2.13718e-16 2.05
v 4.1 -2.13718e-16 1.05
v 3.05 -1.249e-16 4.76837e-08
v 2.05 -1.249e-16 4.76837e-08
v 1.05 -1.249e-16 4.76837e-08
v 0.05 -1.249e-16 4.76837e-08
v 4.76837e-08 -1.66533e-16 3.05
v 4.76837e-08 -1.66533e-16 2.05
v 4.76837e-08 -1.66533e-16 1.05
# </points>

# <edges count="192">
l 1 94
l 95 1
l 96 95
l 97 96
l 98 97
l 2 98
l 99 2
l 6 5
l 7 6
l 8 7
l 100 99
l 5 8
l 10 9
l 11 10
l 12 11
l 9 12
l 14 13
l 15 14
l 16 15
l 13 16
l 18 17
l 19 18
l 20 19
l 17 20
l 22 21
l 23 22
l 24 23
l 21 24
l 101 100
l 26 25
l 27 26
l 28 27
l 25 28
l 30 29
l 31 30
l 32 31
l 29 32
l 34 33
l 35 34
l 36 35
l 33 36
l 38 37
l 39 38
l 40 39
l 37 40
l 102 101
l 42 41
l 43 42
l 44 43
l 41 44
l 46 45
l 47 46
l 48 47
l 45 48
l 50 49
l 51 50
l 52 51
l 49 52
l 54 53
l 55 54
l 56 55
l 103 3
l 53 56
l 3 102
l 58 57
l 59 58
l 104 103
l 60 59
l 57 60
l 62 61
l 63 62
l 105 104
l 64 63
l 61 64
l 66 65
l 67 66
l 68 67
l 65 68
l 106 105
l 94 107
l 107 108
l 108 109
l 109 4
l 4 106
l 70 69
l 71 70
l 72 71
l 73 72
l 75 74
l 74 76
l 76 77
l 77 78
l 80 79
l 81 80
l 82 81
l 83 82
l 85 84
l 84 86
l 86 87
l 87 88
l 90 89
l 89 4
l 91 90
l 92 91
l 1 93
l 93 92
l 3 69
l 73 2
l 75 73
l 83 75
l 85 83
l 93 85
l 92 84
l 84 82
l 82 74
l 74 72
l 91 86
l 86 81
l 81 76
l 76 71
l 90 87
l 87 80
l 80 77
l 77 70
l 89 88
l 78 69
l 79 78
l 88 79
l 69 56
l 53 70
l 70 40
l 37 71
l 71 24
l 21 72
l 72 7
l 8 73
l 74 12
l 9 75
l 76 28
l 25 74
l 77 44
l 41 76
l 78 59
l 60 77
l 79 63
l 64 80
l 80 47
l 48 81
l 81 31
l 32 82
l 82 16
l 13 83
l 84 20
l 17 85
l 86 36
l 33 84
l 87 52
l 49 86
l 88 65
l 66 87
l 68 89
l 90 67
l 51 90
l 91 50
l 35 91
l 92 34
l 19 92
l 93 18
l 85 14
l 15 84
l 30 86
l 84 29
l 46 87
l 86 45
l 87 61
l 62 88
l 80 57
l 58 79
l 43 80
l 81 42
l 27 81
l 82 26
l 83 10
l 11 82
l 75 5
l 6 74
l 23 76
l 74 22
l 39 77
l 76 38
l 77 54
l 55 78
# </edges>
