solid ntCB
   facet normal -0.000000e+00 -1.000000e+00 0.000000e+00
      outer loop
         vertex 5.000000e-02 0.000000e+00 4.100000e+00
         vertex 4.768371e-08 0.000000e+00 4.100000e+00
         vertex 4.768371e-08 0.000000e+00 4.050000e+00
      endloop
   endfacet
   facet normal 0.000000e+00 -1.000000e+00 0.000000e+00
      outer loop
         vertex 5.000000e-02 0.000000e+00 4.100000e+00
         vertex 5.000000e-02 0.000000e+00 4.050000e+00
         vertex 1.050000e+00 0.000000e+00 4.100000e+00
      endloop
   endfacet
   facet normal 0.000000e+00 -1.000000e+00 -0.000000e+00
      outer loop
         vertex 1.050000e+00 0.000000e+00 4.100000e+00
         vertex 5.000000e-02 0.000000e+00 4.050000e+00
         vertex 1.050000e+00 0.000000e+00 4.050000e+00
      endloop
   endfacet
   facet normal 0.000000e+00 -1.000000e+00 0.000000e+00
      outer loop
         vertex 1.050000e+00 0.000000e+00 4.100000e+00
         vertex 1.050000e+00 0.000000e+00 4.050000e+00
         vertex 2.050000e+00 0.000000e+00 4.100000e+00
      endloop
   endfacet
   facet normal 0.000000e+00 -1.000000e+00 -0.000000e+00
      outer loop
         vertex 2.050000e+00 0.000000e+00 4.100000e+00
         vertex 1.050000e+00 0.000000e+00 4.050000e+00
         vertex 2.050000e+00 0.000000e+00 4.050000e+00
      endloop
   endfacet
   facet normal 0.000000e+00 -1.000000e+00 0.000000e+00
      outer loop
         vertex 2.050000e+00 0.000000e+00 4.100000e+00
         vertex 2.050000e+00 0.000000e+00 4.050000e+00
         vertex 3.050000e+00 0.000000e+00 4.100000e+00
      endloop
   endfacet
   facet normal 0.000000e+00 -1.000000e+00 -0.000000e+00
      outer loop
         vertex 3.050000e+00 0.000000e+00 4.100000e+00
         vertex 2.050000e+00 0.000000e+00 4.050000e+00
         vertex 3.050000e+00 0.000000e+00 4.050000e+00
      endloop
   endfacet
   facet normal 0.000000e+00 -1.000000e+00 0.000000e+00
      outer loop
         vertex 3.050000e+00 0.000000e+00 4.100000e+00
         vertex 3.050000e+00 0.000000e+00 4.050000e+00
         vertex 4.100000e+00 0.000000e+00 4.100000e+00
      endloop
   endfacet
   facet normal 0.000000e+00 -1.000000e+00 -0.000000e+00
      outer loop
         vertex 4.100000e+00 0.000000e+00 4.100000e+00
         vertex 3.050000e+00 0.000000e+00 4.050000e+00
         vertex 4.100000e+00 0.000000e+00 4.050000e+00
      endloop
   endfacet
   facet normal -0.000000e+00 -1.000000e+00 -0.000000e+00
      outer loop
         vertex 3.100000e+00 0.000000e+00 4.000000e+00
         vertex 3.050000e+00 0.000000e+00 4.050000e+00
         vertex 3.100000e+00 0.000000e+00 3.100000e+00
      endloop
   endfacet
   facet normal -0.000000e+00 -1.000000e+00 0.000000e+00
      outer loop
         vertex 3.100000e+00 0.000000e+00 3.100000e+00
         vertex 3.050000e+00 0.000000e+00 4.050000e+00
         vertex 3.050000e+00 0.000000e+00 3.050000e+00
      endloop
   endfacet
   facet normal 0.000000e+00 -1.000000e+00 -0.000000e+00
      outer loop
         vertex 3.100000e+00 0.000000e+00 3.100000e+00
         vertex 3.050000e+00 0.000000e+00 3.050000e+00
         vertex 4.000000e+00 0.000000e+00 3.100000e+00
      endloop
   endfacet
   facet normal 0.000000e+00 -1.000000e+00 -0.000000e+00
      outer loop
         vertex 4.000000e+00 0.000000e+00 3.100000e+00
         vertex 3.050000e+00 0.000000e+00 3.050000e+00
         vertex 4.100000e+00 0.000000e+00 3.050000e+00
      endloop
   endfacet
   facet normal 0.000000e+00 -1.000000e+00 0.000000e+00
      outer loop
         vertex 4.000000e+00 0.000000e+00 3.100000e+00
         vertex 4.100000e+00 0.000000e+00 3.050000e+00
         vertex 4.000000e+00 0.000000e+00 4.000000e+00
      endloop
   endfacet
   facet normal 0.000000e+00 -1.000000e+00 0.000000e+00
      outer loop
         vertex 4.000000e+00 0.000000e+00 4.000000e+00
         vertex 4.100000e+00 0.000000e+00 3.050000e+00
         vertex 4.100000e+00 0.000000e+00 4.050000e+00
      endloop
   endfacet
   facet normal 0.000000e+00 -1.000000e+00 0.000000e+00
      outer loop
         vertex 4.000000e+00 0.000000e+00 4.000000e+00
         vertex 4.100000e+00 0.000000e+00 4.050000e+00
         vertex 3.100000e+00 0.000000e+00 4.000000e+00
      endloop
   endfacet
   facet normal 0.000000e+00 -1.000000e+00 0.000000e+00
      outer loop
         vertex 3.100000e+00 0.000000e+00 4.000000e+00
         vertex 4.100000e+00 0.000000e+00 4.050000e+00
         vertex 3.050000e+00 0.000000e+00 4.050000e+00
      endloop
   endfacet
   facet normal 0.000000e+00 -1.000000e+00 0.000000e+00
      outer loop
         vertex 3.000000e+00 0.000000e+00 4.000000e+00
         vertex 3.050000e+00 0.000000e+00 4.050000e+00
         vertex 2.100000e+00 0.000000e+00 4.000000e+00
      endloop
   endfacet
   facet normal 0.000000e+00 -1.000000e+00 0.000000e+00
      outer loop
         vertex 2.100000e+00 0.000000e+00 4.000000e+00
         vertex 3.050000e+00 0.000000e+00 4.050000e+00
         vertex 2.050000e+00 0.000000e+00 4.050000e+00
      endloop
   endfacet
   facet normal -0.000000e+00 -1.000000e+00 -0.000000e+00
      outer loop
         vertex 2.100000e+00 0.000000e+00 4.000000e+00
         vertex 2.050000e+00 0.000000e+00 4.050000e+00
         vertex 2.100000e+00 0.000000e+00 3.100000e+00
      endloop
   endfacet
   facet normal -0.000000e+00 -1.000000e+00 0.000000e+00
      outer loop
         vertex 2.100000e+00 0.000000e+00 3.100000e+00
         vertex 2.050000e+00 0.000000e+00 4.050000e+00
         vertex 2.050000e+00 0.000000e+00 3.050000e+00
      endloop
   endfacet
   facet normal 0.000000e+00 -1.000000e+00 -0.000000e+00
      outer loop
         vertex 2.100000e+00 0.000000e+00 3.100000e+00
         vertex 2.050000e+00 0.000000e+00 3.050000e+00
         vertex 3.000000e+00 0.000000e+00 3.100000e+00
      endloop
   endfacet
   facet normal 0.000000e+00 -1.000000e+00 -0.000000e+00
      outer loop
         vertex 3.000000e+00 0.000000e+00 3.100000e+00
         vertex 2.050000e+00 0.000000e+00 3.050000e+00
         vertex 3.050000e+00 0.000000e+00 3.050000e+00
      endloop
   endfacet
   facet normal 0.000000e+00 -1.000000e+00 0.000000e+00
      outer loop
         vertex 3.000000e+00 0.000000e+00 3.100000e+00
         vertex 3.050000e+00 0.000000e+00 3.050000e+00
         vertex 3.000000e+00 0.000000e+00 4.000000e+00
      endloop
   endfacet
   facet normal 0.000000e+00 -1.000000e+00 0.000000e+00
      outer loop
         vertex 3.000000e+00 0.000000e+00 4.000000e+00
         vertex 3.050000e+00 0.000000e+00 3.050000e+00
         vertex 3.050000e+00 0.000000e+00 4.050000e+00
      endloop
   endfacet
   facet normal 0.000000e+00 -1.000000e+00 0.000000e+00
      outer loop
         vertex 2.000000e+00 0.000000e+00 4.000000e+00
         vertex 2.050000e+00 0.000000e+00 4.050000e+00
         vertex 1.100000e+00 0.000000e+00 4.000000e+00
      endloop
   endfacet
   facet normal 0.000000e+00 -1.000000e+00 0.000000e+00
      outer loop
         vertex 1.100000e+00 0.000000e+00 4.000000e+00
         vertex 2.050000e+00 0.000000e+00 4.050000e+00
         vertex 1.050000e+00 0.000000e+00 4.050000e+00
      endloop
   endfacet
   facet normal -0.000000e+00 -1.000000e+00 -0.000000e+00
      outer loop
         vertex 1.100000e+00 0.000000e+00 4.000000e+00
         vertex 1.050000e+00 0.000000e+00 4.050000e+00
         vertex 1.100000e+00 0.000000e+00 3.100000e+00
      endloop
   endfacet
   facet normal -0.000000e+00 -1.000000e+00 0.000000e+00
      outer loop
         vertex 1.100000e+00 0.000000e+00 3.100000e+00
         vertex 1.050000e+00 0.000000e+00 4.050000e+00
         vertex 1.050000e+00 0.000000e+00 3.050000e+00
      endloop
   endfacet
   facet normal 0.000000e+00 -1.000000e+00 -0.000000e+00
      outer loop
         vertex 1.100000e+00 0.000000e+00 3.100000e+00
         vertex 1.050000e+00 0.000000e+00 3.050000e+00
         vertex 2.000000e+00 0.000000e+00 3.100000e+00
      endloop
   endfacet
   facet normal 0.000000e+00 -1.000000e+00 -0.000000e+00
      outer loop
         vertex 2.000000e+00 0.000000e+00 3.100000e+00
         vertex 1.050000e+00 0.000000e+00 3.050000e+00
         vertex 2.050000e+00 0.000000e+00 3.050000e+00
      endloop
   endfacet
   facet normal 0.000000e+00 -1.000000e+00 0.000000e+00
      outer loop
         vertex 2.000000e+00 0.000000e+00 3.100000e+00
         vertex 2.050000e+00 0.000000e+00 3.050000e+00
         vertex 2.000000e+00 0.000000e+00 4.000000e+00
      endloop
   endfacet
   facet normal 0.000000e+00 -1.000000e+00 0.000000e+00
      outer loop
         vertex 2.000000e+00 0.000000e+00 4.000000e+00
         vertex 2.050000e+00 0.000000e+00 3.050000e+00
         vertex 2.050000e+00 0.000000e+00 4.050000e+00
      endloop
   endfacet
   facet normal 0.000000e+00 -1.000000e+00 0.000000e+00
      outer loop
         vertex 1.000000e+00 0.000000e+00 4.000000e+00
         vertex 1.050000e+00 0.000000e+00 4.050000e+00
         vertex 9.999995e-02 0.000000e+00 4.000000e+00
      endloop
   endfacet
   facet normal 0.000000e+00 -1.000000e+00 0.000000e+00
      outer loop
         vertex 9.999995e-02 0.000000e+00 4.000000e+00
         vertex 1.050000e+00 0.000000e+00 4.050000e+00
         vertex 5.000000e-02 0.000000e+00 4.050000e+00
      endloop
   endfacet
   facet normal -0.000000e+00 -1.000000e+00 -0.000000e+00
      outer loop
         vertex 9.999995e-02 0.000000e+00 4.000000e+00
         vertex 5.000000e-02 0.000000e+00 4.050000e+00
         vertex 9.999995e-02 0.000000e+00 3.100000e+00
      endloop
   endfacet
   facet normal -0.000000e+00 -1.000000e+00 0.000000e+00
      outer loop
         vertex 9.999995e-02 0.000000e+00 3.100000e+00
         vertex 5.000000e-02 0.000000e+00 4.050000e+00
         vertex 5.000000e-02 0.000000e+00 3.050000e+00
      endloop
   endfacet
   facet normal 0.000000e+00 -1.000000e+00 -0.000000e+00
      outer loop
         vertex 9.999995e-02 0.000000e+00 3.100000e+00
         vertex 5.000000e-02 0.000000e+00 3.050000e+00
         vertex 1.000000e+00 0.000000e+00 3.100000e+00
      endloop
   endfacet
   facet normal 0.000000e+00 -1.000000e+00 -0.000000e+00
      outer loop
         vertex 1.000000e+00 0.000000e+00 3.100000e+00
         vertex 5.000000e-02 0.000000e+00 3.050000e+00
         vertex 1.050000e+00 0.000000e+00 3.050000e+00
      endloop
   endfacet
   facet normal 0.000000e+00 -1.000000e+00 0.000000e+00
      outer loop
         vertex 1.000000e+00 0.000000e+00 3.100000e+00
         vertex 1.050000e+00 0.000000e+00 3.050000e+00
         vertex 1.000000e+00 0.000000e+00 4.000000e+00
      endloop
   endfacet
   facet normal 0.000000e+00 -1.000000e+00 0.000000e+00
      outer loop
         vertex 1.000000e+00 0.000000e+00 4.000000e+00
         vertex 1.050000e+00 0.000000e+00 3.050000e+00
         vertex 1.050000e+00 0.000000e+00 4.050000e+00
      endloop
   endfacet
   facet normal 0.000000e+00 -1.000000e+00 0.000000e+00
      outer loop
         vertex 4.000000e+00 0.000000e+00 3.000000e+00
         vertex 4.100000e+00 0.000000e+00 3.050000e+00
         vertex 3.100000e+00 0.000000e+00 3.000000e+00
      endloop
   endfacet
   facet normal 0.000000e+00 -1.000000e+00 0.000000e+00
      outer loop
         vertex 3.100000e+00 0.000000e+00 3.000000e+00
         vertex 4.100000e+00 0.000000e+00 3.050000e+00
         vertex 3.050000e+00 0.000000e+00 3.050000e+00
      endloop
   endfacet
   facet normal -0.000000e+00 -1.000000e+00 -0.000000e+00
      outer loop
         vertex 3.100000e+00 0.000000e+00 3.000000e+00
         vertex 3.050000e+00 0.000000e+00 3.050000e+00
         vertex 3.100000e+00 0.000000e+00 2.100000e+00
      endloop
   endfacet
   facet normal -0.000000e+00 -1.000000e+00 0.000000e+00
      outer loop
         vertex 3.100000e+00 0.000000e+00 2.100000e+00
         vertex 3.050000e+00 0.000000e+00 3.050000e+00
         vertex 3.050000e+00 0.000000e+00 2.050000e+00
      endloop
   endfacet
   facet normal 0.000000e+00 -1.000000e+00 -0.000000e+00
      outer loop
         vertex 3.100000e+00 0.000000e+00 2.100000e+00
         vertex 3.050000e+00 0.000000e+00 2.050000e+00
         vertex 4.000000e+00 0.000000e+00 2.100000e+00
      endloop
   endfacet
   facet normal 0.000000e+00 -1.000000e+00 -0.000000e+00
      outer loop
         vertex 4.000000e+00 0.000000e+00 2.100000e+00
         vertex 3.050000e+00 0.000000e+00 2.050000e+00
         vertex 4.100000e+00 0.000000e+00 2.050000e+00
      endloop
   endfacet
   facet normal 0.000000e+00 -1.000000e+00 0.000000e+00
      outer loop
         vertex 4.000000e+00 0.000000e+00 2.100000e+00
         vertex 4.100000e+00 0.000000e+00 2.050000e+00
         vertex 4.000000e+00 0.000000e+00 3.000000e+00
      endloop
   endfacet
   facet normal 0.000000e+00 -1.000000e+00 0.000000e+00
      outer loop
         vertex 4.000000e+00 0.000000e+00 3.000000e+00
         vertex 4.100000e+00 0.000000e+00 2.050000e+00
         vertex 4.100000e+00 0.000000e+00 3.050000e+00
      endloop
   endfacet
   facet normal 0.000000e+00 -1.000000e+00 0.000000e+00
      outer loop
         vertex 3.000000e+00 0.000000e+00 3.000000e+00
         vertex 3.050000e+00 0.000000e+00 3.050000e+00
         vertex 2.100000e+00 0.000000e+00 3.000000e+00
      endloop
   endfacet
   facet normal 0.000000e+00 -1.000000e+00 0.000000e+00
      outer loop
         vertex 2.100000e+00 0.000000e+00 3.000000e+00
         vertex 3.050000e+00 0.000000e+00 3.050000e+00
         vertex 2.050000e+00 0.000000e+00 3.050000e+00
      endloop
   endfacet
   facet normal -0.000000e+00 -1.000000e+00 -0.000000e+00
      outer loop
         vertex 2.100000e+00 0.000000e+00 3.000000e+00
         vertex 2.050000e+00 0.000000e+00 3.050000e+00
         vertex 2.100000e+00 0.000000e+00 2.100000e+00
      endloop
   endfacet
   facet normal -0.000000e+00 -1.000000e+00 0.000000e+00
      outer loop
         vertex 2.100000e+00 0.000000e+00 2.100000e+00
         vertex 2.050000e+00 0.000000e+00 3.050000e+00
         vertex 2.050000e+00 0.000000e+00 2.050000e+00
      endloop
   endfacet
   facet normal 0.000000e+00 -1.000000e+00 -0.000000e+00
      outer loop
         vertex 2.100000e+00 0.000000e+00 2.100000e+00
         vertex 2.050000e+00 0.000000e+00 2.050000e+00
         vertex 3.000000e+00 0.000000e+00 2.100000e+00
      endloop
   endfacet
   facet normal 0.000000e+00 -1.000000e+00 -0.000000e+00
      outer loop
         vertex 3.000000e+00 0.000000e+00 2.100000e+00
         vertex 2.050000e+00 0.000000e+00 2.050000e+00
         vertex 3.050000e+00 0.000000e+00 2.050000e+00
      endloop
   endfacet
   facet normal 0.000000e+00 -1.000000e+00 0.000000e+00
      outer loop
         vertex 3.000000e+00 0.000000e+00 2.100000e+00
         vertex 3.050000e+00 0.000000e+00 2.050000e+00
         vertex 3.000000e+00 0.000000e+00 3.000000e+00
      endloop
   endfacet
   facet normal 0.000000e+00 -1.000000e+00 0.000000e+00
      outer loop
         vertex 3.000000e+00 0.000000e+00 3.000000e+00
         vertex 3.050000e+00 0.000000e+00 2.050000e+00
         vertex 3.050000e+00 0.000000e+00 3.050000e+00
      endloop
   endfacet
   facet normal -0.000000e+00 -1.000000e+00 -0.000000e+00
      outer loop
         vertex 1.100000e+00 0.000000e+00 3.000000e+00
         vertex 1.050000e+00 0.000000e+00 3.050000e+00
         vertex 1.100000e+00 0.000000e+00 2.100000e+00
      endloop
   endfacet
   facet normal -0.000000e+00 -1.000000e+00 0.000000e+00
      outer loop
         vertex 1.100000e+00 0.000000e+00 2.100000e+00
         vertex 1.050000e+00 0.000000e+00 3.050000e+00
         vertex 1.050000e+00 0.000000e+00 2.050000e+00
      endloop
   endfacet
   facet normal 0.000000e+00 -1.000000e+00 -0.000000e+00
      outer loop
         vertex 1.100000e+00 0.000000e+00 2.100000e+00
         vertex 1.050000e+00 0.000000e+00 2.050000e+00
         vertex 2.000000e+00 0.000000e+00 2.100000e+00
      endloop
   endfacet
   facet normal 0.000000e+00 -1.000000e+00 -0.000000e+00
      outer loop
         vertex 2.000000e+00 0.000000e+00 2.100000e+00
         vertex 1.050000e+00 0.000000e+00 2.050000e+00
         vertex 2.050000e+00 0.000000e+00 2.050000e+00
      endloop
   endfacet
   facet normal 0.000000e+00 -1.000000e+00 0.000000e+00
      outer loop
         vertex 2.000000e+00 0.000000e+00 2.100000e+00
         vertex 2.050000e+00 0.000000e+00 2.050000e+00
         vertex 2.000000e+00 0.000000e+00 3.000000e+00
      endloop
   endfacet
   facet normal 0.000000e+00 -1.000000e+00 0.000000e+00
      outer loop
         vertex 2.000000e+00 0.000000e+00 3.000000e+00
         vertex 2.050000e+00 0.000000e+00 2.050000e+00
         vertex 2.050000e+00 0.000000e+00 3.050000e+00
      endloop
   endfacet
   facet normal 0.000000e+00 -1.000000e+00 0.000000e+00
      outer loop
         vertex 2.000000e+00 0.000000e+00 3.000000e+00
         vertex 2.050000e+00 0.000000e+00 3.050000e+00
         vertex 1.100000e+00 0.000000e+00 3.000000e+00
      endloop
   endfacet
   facet normal 0.000000e+00 -1.000000e+00 0.000000e+00
      outer loop
         vertex 1.100000e+00 0.000000e+00 3.000000e+00
         vertex 2.050000e+00 0.000000e+00 3.050000e+00
         vertex 1.050000e+00 0.000000e+00 3.050000e+00
      endloop
   endfacet
   facet normal 0.000000e+00 -1.000000e+00 0.000000e+00
      outer loop
         vertex 1.000000e+00 0.000000e+00 3.000000e+00
         vertex 1.050000e+00 0.000000e+00 3.050000e+00
         vertex 9.999995e-02 0.000000e+00 3.000000e+00
      endloop
   endfacet
   facet normal 0.000000e+00 -1.000000e+00 0.000000e+00
      outer loop
         vertex 9.999995e-02 0.000000e+00 3.000000e+00
         vertex 1.050000e+00 0.000000e+00 3.050000e+00
         vertex 5.000000e-02 0.000000e+00 3.050000e+00
      endloop
   endfacet
   facet normal -0.000000e+00 -1.000000e+00 -0.000000e+00
      outer loop
         vertex 9.999995e-02 0.000000e+00 3.000000e+00
         vertex 5.000000e-02 0.000000e+00 3.050000e+00
         vertex 9.999995e-02 0.000000e+00 2.100000e+00
      endloop
   endfacet
   facet normal -0.000000e+00 -1.000000e+00 0.000000e+00
      outer loop
         vertex 9.999995e-02 0.000000e+00 2.100000e+00
         vertex 5.000000e-02 0.000000e+00 3.050000e+00
         vertex 5.000000e-02 0.000000e+00 2.050000e+00
      endloop
   endfacet
   facet normal 0.000000e+00 -1.000000e+00 -0.000000e+00
      outer loop
         vertex 9.999995e-02 0.000000e+00 2.100000e+00
         vertex 5.000000e-02 0.000000e+00 2.050000e+00
         vertex 1.000000e+00 0.000000e+00 2.100000e+00
      endloop
   endfacet
   facet normal 0.000000e+00 -1.000000e+00 -0.000000e+00
      outer loop
         vertex 1.000000e+00 0.000000e+00 2.100000e+00
         vertex 5.000000e-02 0.000000e+00 2.050000e+00
         vertex 1.050000e+00 0.000000e+00 2.050000e+00
      endloop
   endfacet
   facet normal 0.000000e+00 -1.000000e+00 0.000000e+00
      outer loop
         vertex 1.000000e+00 0.000000e+00 2.100000e+00
         vertex 1.050000e+00 0.000000e+00 2.050000e+00
         vertex 1.000000e+00 0.000000e+00 3.000000e+00
      endloop
   endfacet
   facet normal 0.000000e+00 -1.000000e+00 0.000000e+00
      outer loop
         vertex 1.000000e+00 0.000000e+00 3.000000e+00
         vertex 1.050000e+00 0.000000e+00 2.050000e+00
         vertex 1.050000e+00 0.000000e+00 3.050000e+00
      endloop
   endfacet
   facet normal 0.000000e+00 -1.000000e+00 0.000000e+00
      outer loop
         vertex 4.000000e+00 0.000000e+00 2.000000e+00
         vertex 4.100000e+00 0.000000e+00 2.050000e+00
         vertex 3.100000e+00 0.000000e+00 2.000000e+00
      endloop
   endfacet
   facet normal 0.000000e+00 -1.000000e+00 0.000000e+00
      outer loop
         vertex 3.100000e+00 0.000000e+00 2.000000e+00
         vertex 4.100000e+00 0.000000e+00 2.050000e+00
         vertex 3.050000e+00 0.000000e+00 2.050000e+00
      endloop
   endfacet
   facet normal -0.000000e+00 -1.000000e+00 -0.000000e+00
      outer loop
         vertex 3.100000e+00 0.000000e+00 2.000000e+00
         vertex 3.050000e+00 0.000000e+00 2.050000e+00
         vertex 3.100000e+00 0.000000e+00 1.100000e+00
      endloop
   endfacet
   facet normal -0.000000e+00 -1.000000e+00 0.000000e+00
      outer loop
         vertex 3.100000e+00 0.000000e+00 1.100000e+00
         vertex 3.050000e+00 0.000000e+00 2.050000e+00
         vertex 3.050000e+00 0.000000e+00 1.050000e+00
      endloop
   endfacet
   facet normal 0.000000e+00 -1.000000e+00 -0.000000e+00
      outer loop
         vertex 3.100000e+00 0.000000e+00 1.100000e+00
         vertex 3.050000e+00 0.000000e+00 1.050000e+00
         vertex 4.000000e+00 0.000000e+00 1.100000e+00
      endloop
   endfacet
   facet normal 0.000000e+00 -1.000000e+00 -0.000000e+00
      outer loop
         vertex 4.000000e+00 0.000000e+00 1.100000e+00
         vertex 3.050000e+00 0.000000e+00 1.050000e+00
         vertex 4.100000e+00 0.000000e+00 1.050000e+00
      endloop
   endfacet
   facet normal 0.000000e+00 -1.000000e+00 0.000000e+00
      outer loop
         vertex 4.000000e+00 0.000000e+00 1.100000e+00
         vertex 4.100000e+00 0.000000e+00 1.050000e+00
         vertex 4.000000e+00 0.000000e+00 2.000000e+00
      endloop
   endfacet
   facet normal 0.000000e+00 -1.000000e+00 0.000000e+00
      outer loop
         vertex 4.000000e+00 0.000000e+00 2.000000e+00
         vertex 4.100000e+00 0.000000e+00 1.050000e+00
         vertex 4.100000e+00 0.000000e+00 2.050000e+00
      endloop
   endfacet
   facet normal 0.000000e+00 -1.000000e+00 0.000000e+00
      outer loop
         vertex 3.000000e+00 0.000000e+00 2.000000e+00
         vertex 3.050000e+00 0.000000e+00 2.050000e+00
         vertex 2.100000e+00 0.000000e+00 2.000000e+00
      endloop
   endfacet
   facet normal 0.000000e+00 -1.000000e+00 0.000000e+00
      outer loop
         vertex 2.100000e+00 0.000000e+00 2.000000e+00
         vertex 3.050000e+00 0.000000e+00 2.050000e+00
         vertex 2.050000e+00 0.000000e+00 2.050000e+00
      endloop
   endfacet
   facet normal -0.000000e+00 -1.000000e+00 -0.000000e+00
      outer loop
         vertex 2.100000e+00 0.000000e+00 2.000000e+00
         vertex 2.050000e+00 0.000000e+00 2.050000e+00
         vertex 2.100000e+00 0.000000e+00 1.100000e+00
      endloop
   endfacet
   facet normal -0.000000e+00 -1.000000e+00 0.000000e+00
      outer loop
         vertex 2.100000e+00 0.000000e+00 1.100000e+00
         vertex 2.050000e+00 0.000000e+00 2.050000e+00
         vertex 2.050000e+00 0.000000e+00 1.050000e+00
      endloop
   endfacet
   facet normal 0.000000e+00 -1.000000e+00 -0.000000e+00
      outer loop
         vertex 2.100000e+00 0.000000e+00 1.100000e+00
         vertex 2.050000e+00 0.000000e+00 1.050000e+00
         vertex 3.000000e+00 0.000000e+00 1.100000e+00
      endloop
   endfacet
   facet normal 0.000000e+00 -1.000000e+00 -0.000000e+00
      outer loop
         vertex 3.000000e+00 0.000000e+00 1.100000e+00
         vertex 2.050000e+00 0.000000e+00 1.050000e+00
         vertex 3.050000e+00 0.000000e+00 1.050000e+00
      endloop
   endfacet
   facet normal 0.000000e+00 -1.000000e+00 0.000000e+00
      outer loop
         vertex 3.000000e+00 0.000000e+00 1.100000e+00
         vertex 3.050000e+00 0.000000e+00 1.050000e+00
         vertex 3.000000e+00 0.000000e+00 2.000000e+00
      endloop
   endfacet
   facet normal 0.000000e+00 -1.000000e+00 0.000000e+00
      outer loop
         vertex 3.000000e+00 0.000000e+00 2.000000e+00
         vertex 3.050000e+00 0.000000e+00 1.050000e+00
         vertex 3.050000e+00 0.000000e+00 2.050000e+00
      endloop
   endfacet
   facet normal -0.000000e+00 -1.000000e+00 -0.000000e+00
      outer loop
         vertex 1.100000e+00 0.000000e+00 2.000000e+00
         vertex 1.050000e+00 0.000000e+00 2.050000e+00
         vertex 1.100000e+00 0.000000e+00 1.100000e+00
      endloop
   endfacet
   facet normal -0.000000e+00 -1.000000e+00 0.000000e+00
      outer loop
         vertex 1.100000e+00 0.000000e+00 1.100000e+00
         vertex 1.050000e+00 0.000000e+00 2.050000e+00
         vertex 1.050000e+00 0.000000e+00 1.050000e+00
      endloop
   endfacet
   facet normal 0.000000e+00 -1.000000e+00 -0.000000e+00
      outer loop
         vertex 1.100000e+00 0.000000e+00 1.100000e+00
         vertex 1.050000e+00 0.000000e+00 1.050000e+00
         vertex 2.000000e+00 0.000000e+00 1.100000e+00
      endloop
   endfacet
   facet normal 0.000000e+00 -1.000000e+00 -0.000000e+00
      outer loop
         vertex 2.000000e+00 0.000000e+00 1.100000e+00
         vertex 1.050000e+00 0.000000e+00 1.050000e+00
         vertex 2.050000e+00 0.000000e+00 1.050000e+00
      endloop
   endfacet
   facet normal 0.000000e+00 -1.000000e+00 0.000000e+00
      outer loop
         vertex 2.000000e+00 0.000000e+00 1.100000e+00
         vertex 2.050000e+00 0.000000e+00 1.050000e+00
         vertex 2.000000e+00 0.000000e+00 2.000000e+00
      endloop
   endfacet
   facet normal 0.000000e+00 -1.000000e+00 0.000000e+00
      outer loop
         vertex 2.000000e+00 0.000000e+00 2.000000e+00
         vertex 2.050000e+00 0.000000e+00 1.050000e+00
         vertex 2.050000e+00 0.000000e+00 2.050000e+00
      endloop
   endfacet
   facet normal 0.000000e+00 -1.000000e+00 0.000000e+00
      outer loop
         vertex 2.000000e+00 0.000000e+00 2.000000e+00
         vertex 2.050000e+00 0.000000e+00 2.050000e+00
         vertex 1.100000e+00 0.000000e+00 2.000000e+00
      endloop
   endfacet
   facet normal 0.000000e+00 -1.000000e+00 0.000000e+00
      outer loop
         vertex 1.100000e+00 0.000000e+00 2.000000e+00
         vertex 2.050000e+00 0.000000e+00 2.050000e+00
         vertex 1.050000e+00 0.000000e+00 2.050000e+00
      endloop
   endfacet
   facet normal 0.000000e+00 -1.000000e+00 0.000000e+00
      outer loop
         vertex 1.000000e+00 0.000000e+00 2.000000e+00
         vertex 1.050000e+00 0.000000e+00 2.050000e+00
         vertex 9.999995e-02 0.000000e+00 2.000000e+00
      endloop
   endfacet
   facet normal 0.000000e+00 -1.000000e+00 0.000000e+00
      outer loop
         vertex 9.999995e-02 0.000000e+00 2.000000e+00
         vertex 1.050000e+00 0.000000e+00 2.050000e+00
         vertex 5.000000e-02 0.000000e+00 2.050000e+00
      endloop
   endfacet
   facet normal -0.000000e+00 -1.000000e+00 -0.000000e+00
      outer loop
         vertex 9.999995e-02 0.000000e+00 2.000000e+00
         vertex 5.000000e-02 0.000000e+00 2.050000e+00
         vertex 9.999995e-02 0.000000e+00 1.100000e+00
      endloop
   endfacet
   facet normal -0.000000e+00 -1.000000e+00 0.000000e+00
      outer loop
         vertex 9.999995e-02 0.000000e+00 1.100000e+00
         vertex 5.000000e-02 0.000000e+00 2.050000e+00
         vertex 5.000000e-02 0.000000e+00 1.050000e+00
      endloop
   endfacet
   facet normal 0.000000e+00 -1.000000e+00 -0.000000e+00
      outer loop
         vertex 9.999995e-02 0.000000e+00 1.100000e+00
         vertex 5.000000e-02 0.000000e+00 1.050000e+00
         vertex 1.000000e+00 0.000000e+00 1.100000e+00
      endloop
   endfacet
   facet normal 0.000000e+00 -1.000000e+00 -0.000000e+00
      outer loop
         vertex 1.000000e+00 0.000000e+00 1.100000e+00
         vertex 5.000000e-02 0.000000e+00 1.050000e+00
         vertex 1.050000e+00 0.000000e+00 1.050000e+00
      endloop
   endfacet
   facet normal 0.000000e+00 -1.000000e+00 0.000000e+00
      outer loop
         vertex 1.000000e+00 0.000000e+00 1.100000e+00
         vertex 1.050000e+00 0.000000e+00 1.050000e+00
         vertex 1.000000e+00 0.000000e+00 2.000000e+00
      endloop
   endfacet
   facet normal 0.000000e+00 -1.000000e+00 0.000000e+00
      outer loop
         vertex 1.000000e+00 0.000000e+00 2.000000e+00
         vertex 1.050000e+00 0.000000e+00 1.050000e+00
         vertex 1.050000e+00 0.000000e+00 2.050000e+00
      endloop
   endfacet
   facet normal 0.000000e+00 -1.000000e+00 0.000000e+00
      outer loop
         vertex 4.000000e+00 0.000000e+00 1.000000e+00
         vertex 4.100000e+00 0.000000e+00 1.050000e+00
         vertex 3.100000e+00 0.000000e+00 1.000000e+00
      endloop
   endfacet
   facet normal 0.000000e+00 -1.000000e+00 0.000000e+00
      outer loop
         vertex 3.100000e+00 0.000000e+00 1.000000e+00
         vertex 4.100000e+00 0.000000e+00 1.050000e+00
         vertex 3.050000e+00 0.000000e+00 1.050000e+00
      endloop
   endfacet
   facet normal -0.000000e+00 -1.000000e+00 -0.000000e+00
      outer loop
         vertex 3.100000e+00 0.000000e+00 1.000000e+00
         vertex 3.050000e+00 0.000000e+00 1.050000e+00
         vertex 3.100000e+00 0.000000e+00 9.999995e-02
      endloop
   endfacet
   facet normal -0.000000e+00 -1.000000e+00 0.000000e+00
      outer loop
         vertex 3.100000e+00 0.000000e+00 9.999995e-02
         vertex 3.050000e+00 0.000000e+00 1.050000e+00
         vertex 3.050000e+00 0.000000e+00 4.768372e-08
      endloop
   endfacet
   facet normal 0.000000e+00 -1.000000e+00 -0.000000e+00
      outer loop
         vertex 3.100000e+00 0.000000e+00 9.999995e-02
         vertex 3.050000e+00 0.000000e+00 4.768372e-08
         vertex 4.000000e+00 0.000000e+00 9.999995e-02
      endloop
   endfacet
   facet normal 0.000000e+00 -1.000000e+00 -0.000000e+00
      outer loop
         vertex 4.000000e+00 0.000000e+00 9.999995e-02
         vertex 3.050000e+00 0.000000e+00 4.768372e-08
         vertex 4.100000e+00 0.000000e+00 4.768372e-08
      endloop
   endfacet
   facet normal 0.000000e+00 -1.000000e+00 0.000000e+00
      outer loop
         vertex 4.000000e+00 0.000000e+00 9.999995e-02
         vertex 4.100000e+00 0.000000e+00 4.768372e-08
         vertex 4.000000e+00 0.000000e+00 1.000000e+00
      endloop
   endfacet
   facet normal 0.000000e+00 -1.000000e+00 0.000000e+00
      outer loop
         vertex 4.000000e+00 0.000000e+00 1.000000e+00
         vertex 4.100000e+00 0.000000e+00 4.768372e-08
         vertex 4.100000e+00 0.000000e+00 1.050000e+00
      endloop
   endfacet
   facet normal -0.000000e+00 -1.000000e+00 -0.000000e+00
      outer loop
         vertex 2.100000e+00 0.000000e+00 1.000000e+00
         vertex 2.050000e+00 0.000000e+00 1.050000e+00
         vertex 2.100000e+00 0.000000e+00 9.999995e-02
      endloop
   endfacet
   facet normal -0.000000e+00 -1.000000e+00 0.000000e+00
      outer loop
         vertex 2.100000e+00 0.000000e+00 9.999995e-02
         vertex 2.050000e+00 0.000000e+00 1.050000e+00
         vertex 2.050000e+00 0.000000e+00 4.768372e-08
      endloop
   endfacet
   facet normal 0.000000e+00 -1.000000e+00 -0.000000e+00
      outer loop
         vertex 2.100000e+00 0.000000e+00 9.999995e-02
         vertex 2.050000e+00 0.000000e+00 4.768372e-08
         vertex 3.000000e+00 0.000000e+00 9.999995e-02
      endloop
   endfacet
   facet normal 0.000000e+00 -1.000000e+00 -0.000000e+00
      outer loop
         vertex 3.000000e+00 0.000000e+00 9.999995e-02
         vertex 2.050000e+00 0.000000e+00 4.768372e-08
         vertex 3.050000e+00 0.000000e+00 4.768372e-08
      endloop
   endfacet
   facet normal 0.000000e+00 -1.000000e+00 0.000000e+00
      outer loop
         vertex 3.000000e+00 0.000000e+00 9.999995e-02
         vertex 3.050000e+00 0.000000e+00 4.768372e-08
         vertex 3.000000e+00 0.000000e+00 1.000000e+00
      endloop
   endfacet
   facet normal 0.000000e+00 -1.000000e+00 0.000000e+00
      outer loop
         vertex 3.000000e+00 0.000000e+00 1.000000e+00
         vertex 3.050000e+00 0.000000e+00 4.768372e-08
         vertex 3.050000e+00 0.000000e+00 1.050000e+00
      endloop
   endfacet
   facet normal 0.000000e+00 -1.000000e+00 0.000000e+00
      outer loop
         vertex 3.000000e+00 0.000000e+00 1.000000e+00
         vertex 3.050000e+00 0.000000e+00 1.050000e+00
         vertex 2.100000e+00 0.000000e+00 1.000000e+00
      endloop
   endfacet
   facet normal 0.000000e+00 -1.000000e+00 0.000000e+00
      outer loop
         vertex 2.100000e+00 0.000000e+00 1.000000e+00
         vertex 3.050000e+00 0.000000e+00 1.050000e+00
         vertex 2.050000e+00 0.000000e+00 1.050000e+00
      endloop
   endfacet
   facet normal -0.000000e+00 -1.000000e+00 -0.000000e+00
      outer loop
         vertex 1.100000e+00 0.000000e+00 1.000000e+00
         vertex 1.050000e+00 0.000000e+00 1.050000e+00
         vertex 1.100000e+00 0.000000e+00 9.999995e-02
      endloop
   endfacet
   facet normal -0.000000e+00 -1.000000e+00 0.000000e+00
      outer loop
         vertex 1.100000e+00 0.000000e+00 9.999995e-02
         vertex 1.050000e+00 0.000000e+00 1.050000e+00
         vertex 1.050000e+00 0.000000e+00 4.768372e-08
      endloop
   endfacet
   facet normal 0.000000e+00 -1.000000e+00 -0.000000e+00
      outer loop
         vertex 1.100000e+00 0.000000e+00 9.999995e-02
         vertex 1.050000e+00 0.000000e+00 4.768372e-08
         vertex 2.000000e+00 0.000000e+00 9.999995e-02
      endloop
   endfacet
   facet normal 0.000000e+00 -1.000000e+00 -0.000000e+00
      outer loop
         vertex 2.000000e+00 0.000000e+00 9.999995e-02
         vertex 1.050000e+00 0.000000e+00 4.768372e-08
         vertex 2.050000e+00 0.000000e+00 4.768372e-08
      endloop
   endfacet
   facet normal 0.000000e+00 -1.000000e+00 0.000000e+00
      outer loop
         vertex 2.000000e+00 0.000000e+00 9.999995e-02
         vertex 2.050000e+00 0.000000e+00 4.768372e-08
         vertex 2.000000e+00 0.000000e+00 1.000000e+00
      endloop
   endfacet
   facet normal 0.000000e+00 -1.000000e+00 0.000000e+00
      outer loop
         vertex 2.000000e+00 0.000000e+00 1.000000e+00
         vertex 2.050000e+00 0.000000e+00 4.768372e-08
         vertex 2.050000e+00 0.000000e+00 1.050000e+00
      endloop
   endfacet
   facet normal 0.000000e+00 -1.000000e+00 0.000000e+00
      outer loop
         vertex 2.000000e+00 0.000000e+00 1.000000e+00
         vertex 2.050000e+00 0.000000e+00 1.050000e+00
         vertex 1.100000e+00 0.000000e+00 1.000000e+00
      endloop
   endfacet
   facet normal 0.000000e+00 -1.000000e+00 0.000000e+00
      outer loop
         vertex 1.100000e+00 0.000000e+00 1.000000e+00
         vertex 2.050000e+00 0.000000e+00 1.050000e+00
         vertex 1.050000e+00 0.000000e+00 1.050000e+00
      endloop
   endfacet
   facet normal 0.000000e+00 -1.000000e+00 0.000000e+00
      outer loop
         vertex 1.000000e+00 0.000000e+00 9.999995e-02
         vertex 1.050000e+00 0.000000e+00 4.768372e-08
         vertex 1.000000e+00 0.000000e+00 1.000000e+00
      endloop
   endfacet
   facet normal 0.000000e+00 -1.000000e+00 0.000000e+00
      outer loop
         vertex 1.000000e+00 0.000000e+00 1.000000e+00
         vertex 1.050000e+00 0.000000e+00 4.768372e-08
         vertex 1.050000e+00 0.000000e+00 1.050000e+00
      endloop
   endfacet
   facet normal 0.000000e+00 -1.000000e+00 0.000000e+00
      outer loop
         vertex 1.000000e+00 0.000000e+00 1.000000e+00
         vertex 1.050000e+00 0.000000e+00 1.050000e+00
         vertex 9.999995e-02 0.000000e+00 1.000000e+00
      endloop
   endfacet
   facet normal 0.000000e+00 -1.000000e+00 0.000000e+00
      outer loop
         vertex 9.999995e-02 0.000000e+00 1.000000e+00
         vertex 1.050000e+00 0.000000e+00 1.050000e+00
         vertex 5.000000e-02 0.000000e+00 1.050000e+00
      endloop
   endfacet
   facet normal -0.000000e+00 -1.000000e+00 -0.000000e+00
      outer loop
         vertex 9.999995e-02 0.000000e+00 1.000000e+00
         vertex 5.000000e-02 0.000000e+00 1.050000e+00
         vertex 9.999995e-02 0.000000e+00 9.999995e-02
      endloop
   endfacet
   facet normal -0.000000e+00 -1.000000e+00 0.000000e+00
      outer loop
         vertex 9.999995e-02 0.000000e+00 9.999995e-02
         vertex 5.000000e-02 0.000000e+00 1.050000e+00
         vertex 5.000000e-02 0.000000e+00 4.768372e-08
      endloop
   endfacet
   facet normal 0.000000e+00 -1.000000e+00 -0.000000e+00
      outer loop
         vertex 9.999995e-02 0.000000e+00 9.999995e-02
         vertex 5.000000e-02 0.000000e+00 4.768372e-08
         vertex 1.000000e+00 0.000000e+00 9.999995e-02
      endloop
   endfacet
   facet normal 0.000000e+00 -1.000000e+00 -0.000000e+00
      outer loop
         vertex 1.000000e+00 0.000000e+00 9.999995e-02
         vertex 5.000000e-02 0.000000e+00 4.768372e-08
         vertex 1.050000e+00 0.000000e+00 4.768372e-08
      endloop
   endfacet
   facet normal 0.000000e+00 -1.000000e+00 -0.000000e+00
      outer loop
         vertex 5.000000e-02 0.000000e+00 4.100000e+00
         vertex 4.768371e-08 0.000000e+00 4.050000e+00
         vertex 5.000000e-02 0.000000e+00 4.050000e+00
      endloop
   endfacet
   facet normal -0.000000e+00 -1.000000e+00 0.000000e+00
      outer loop
         vertex 5.000000e-02 0.000000e+00 4.050000e+00
         vertex 4.768371e-08 0.000000e+00 4.050000e+00
         vertex 4.768371e-08 0.000000e+00 3.050000e+00
      endloop
   endfacet
   facet normal 0.000000e+00 -1.000000e+00 -0.000000e+00
      outer loop
         vertex 5.000000e-02 0.000000e+00 4.050000e+00
         vertex 4.768371e-08 0.000000e+00 3.050000e+00
         vertex 5.000000e-02 0.000000e+00 3.050000e+00
      endloop
   endfacet
   facet normal -0.000000e+00 -1.000000e+00 0.000000e+00
      outer loop
         vertex 5.000000e-02 0.000000e+00 3.050000e+00
         vertex 4.768371e-08 0.000000e+00 3.050000e+00
         vertex 4.768371e-08 0.000000e+00 2.050000e+00
      endloop
   endfacet
   facet normal 0.000000e+00 -1.000000e+00 -0.000000e+00
      outer loop
         vertex 5.000000e-02 0.000000e+00 3.050000e+00
         vertex 4.768371e-08 0.000000e+00 2.050000e+00
         vertex 5.000000e-02 0.000000e+00 2.050000e+00
      endloop
   endfacet
   facet normal -0.000000e+00 -1.000000e+00 0.000000e+00
      outer loop
         vertex 5.000000e-02 0.000000e+00 2.050000e+00
         vertex 4.768371e-08 0.000000e+00 2.050000e+00
         vertex 4.768371e-08 0.000000e+00 1.050000e+00
      endloop
   endfacet
   facet normal 0.000000e+00 -1.000000e+00 -0.000000e+00
      outer loop
         vertex 5.000000e-02 0.000000e+00 2.050000e+00
         vertex 4.768371e-08 0.000000e+00 1.050000e+00
         vertex 5.000000e-02 0.000000e+00 1.050000e+00
      endloop
   endfacet
   facet normal -0.000000e+00 -1.000000e+00 0.000000e+00
      outer loop
         vertex 5.000000e-02 0.000000e+00 1.050000e+00
         vertex 4.768371e-08 0.000000e+00 1.050000e+00
         vertex 4.768371e-08 0.000000e+00 4.768372e-08
      endloop
   endfacet
   facet normal 0.000000e+00 -1.000000e+00 -0.000000e+00
      outer loop
         vertex 5.000000e-02 0.000000e+00 1.050000e+00
         vertex 4.768371e-08 0.000000e+00 4.768372e-08
         vertex 5.000000e-02 0.000000e+00 4.768372e-08
      endloop
   endfacet
   facet normal -9.486834e-01 3.162275e-01 0.000000e+00
      outer loop
         vertex 4.000000e+00 -1.942890e-16 9.999995e-02
         vertex 4.000000e+00 -1.942890e-16 1.000000e+00
         vertex 4.050000e+00 1.500000e-01 5.000000e-02
      endloop
   endfacet
   facet normal -9.486834e-01 3.162275e-01 0.000000e+00
      outer loop
         vertex 4.050000e+00 1.500000e-01 5.000000e-02
         vertex 4.000000e+00 -1.942890e-16 1.000000e+00
         vertex 4.050000e+00 1.500000e-01 1.050000e+00
      endloop
   endfacet
   facet normal -9.486834e-01 3.162275e-01 -2.925692e-17
      outer loop
         vertex 4.000000e+00 -1.942890e-16 1.100000e+00
         vertex 4.000000e+00 -1.110223e-16 2.000000e+00
         vertex 4.050000e+00 1.500000e-01 1.050000e+00
      endloop
   endfacet
   facet normal -9.486834e-01 3.162275e-01 0.000000e+00
      outer loop
         vertex 4.050000e+00 1.500000e-01 1.050000e+00
         vertex 4.000000e+00 -1.110223e-16 2.000000e+00
         vertex 4.050000e+00 1.500000e-01 2.050000e+00
      endloop
   endfacet
   facet normal -9.486834e-01 3.162275e-01 0.000000e+00
      outer loop
         vertex 4.000000e+00 -1.110223e-16 2.100000e+00
         vertex 4.000000e+00 -1.110223e-16 3.000000e+00
         vertex 4.050000e+00 1.500000e-01 2.050000e+00
      endloop
   endfacet
   facet normal -9.486834e-01 3.162275e-01 0.000000e+00
      outer loop
         vertex 4.050000e+00 1.500000e-01 2.050000e+00
         vertex 4.000000e+00 -1.110223e-16 3.000000e+00
         vertex 4.050000e+00 1.500000e-01 3.050000e+00
      endloop
   endfacet
   facet normal -9.486834e-01 3.162275e-01 2.925692e-17
      outer loop
         vertex 4.000000e+00 -1.110223e-16 3.100000e+00
         vertex 4.000000e+00 -1.942890e-16 4.000000e+00
         vertex 4.050000e+00 1.500000e-01 3.050000e+00
      endloop
   endfacet
   facet normal -9.486834e-01 3.162275e-01 0.000000e+00
      outer loop
         vertex 4.050000e+00 1.500000e-01 3.050000e+00
         vertex 4.000000e+00 -1.942890e-16 4.000000e+00
         vertex 4.050000e+00 1.500000e-01 4.050000e+00
      endloop
   endfacet
   facet normal -9.486833e-01 3.162278e-01 -1.950463e-17
      outer loop
         vertex 3.000000e+00 -2.498002e-16 3.100000e+00
         vertex 3.000000e+00 -1.942890e-16 4.000000e+00
         vertex 3.050000e+00 1.500000e-01 3.050000e+00
      endloop
   endfacet
   facet normal -9.486833e-01 3.162278e-01 0.000000e+00
      outer loop
         vertex 3.050000e+00 1.500000e-01 3.050000e+00
         vertex 3.000000e+00 -1.942890e-16 4.000000e+00
         vertex 3.050000e+00 1.500000e-01 4.050000e+00
      endloop
   endfacet
   facet normal -9.486833e-01 3.162278e-01 0.000000e+00
      outer loop
         vertex 3.000000e+00 -2.498002e-16 2.100000e+00
         vertex 3.000000e+00 -2.498002e-16 3.000000e+00
         vertex 3.050000e+00 1.500000e-01 2.050000e+00
      endloop
   endfacet
   facet normal -9.486833e-01 3.162278e-01 0.000000e+00
      outer loop
         vertex 3.050000e+00 1.500000e-01 2.050000e+00
         vertex 3.000000e+00 -2.498002e-16 3.000000e+00
         vertex 3.050000e+00 1.500000e-01 3.050000e+00
      endloop
   endfacet
   facet normal -9.486833e-01 3.162278e-01 1.950463e-17
      outer loop
         vertex 3.000000e+00 -1.942890e-16 1.100000e+00
         vertex 3.000000e+00 -2.498002e-16 2.000000e+00
         vertex 3.050000e+00 1.500000e-01 1.050000e+00
      endloop
   endfacet
   facet normal -9.486833e-01 3.162278e-01 0.000000e+00
      outer loop
         vertex 3.050000e+00 1.500000e-01 1.050000e+00
         vertex 3.000000e+00 -2.498002e-16 2.000000e+00
         vertex 3.050000e+00 1.500000e-01 2.050000e+00
      endloop
   endfacet
   facet normal -9.486833e-01 3.162278e-01 0.000000e+00
      outer loop
         vertex 3.000000e+00 -1.942890e-16 9.999995e-02
         vertex 3.000000e+00 -1.942890e-16 1.000000e+00
         vertex 3.050000e+00 1.500000e-01 5.000000e-02
      endloop
   endfacet
   facet normal -9.486833e-01 3.162278e-01 0.000000e+00
      outer loop
         vertex 3.050000e+00 1.500000e-01 5.000000e-02
         vertex 3.000000e+00 -1.942890e-16 1.000000e+00
         vertex 3.050000e+00 1.500000e-01 1.050000e+00
      endloop
   endfacet
   facet normal -9.486833e-01 3.162278e-01 0.000000e+00
      outer loop
         vertex 2.000000e+00 -2.775558e-16 9.999995e-02
         vertex 2.000000e+00 -2.775558e-16 1.000000e+00
         vertex 2.050000e+00 1.500000e-01 5.000000e-02
      endloop
   endfacet
   facet normal -9.486833e-01 3.162278e-01 8.356102e-16
      outer loop
         vertex 2.050000e+00 1.500000e-01 5.000000e-02
         vertex 2.000000e+00 -2.775558e-16 1.000000e+00
         vertex 2.050000e+00 1.500000e-01 1.050000e+00
      endloop
   endfacet
   facet normal -9.486833e-01 3.162278e-01 0.000000e+00
      outer loop
         vertex 2.000000e+00 -2.775558e-16 1.100000e+00
         vertex 2.000000e+00 -2.775558e-16 2.000000e+00
         vertex 2.050000e+00 1.500000e-01 1.050000e+00
      endloop
   endfacet
   facet normal -9.486833e-01 3.162278e-01 -1.825952e-16
      outer loop
         vertex 2.050000e+00 1.500000e-01 1.050000e+00
         vertex 2.000000e+00 -2.775558e-16 2.000000e+00
         vertex 2.050000e+00 1.500000e-01 2.050000e+00
      endloop
   endfacet
   facet normal -9.486833e-01 3.162278e-01 0.000000e+00
      outer loop
         vertex 2.000000e+00 -2.775558e-16 2.100000e+00
         vertex 2.000000e+00 -2.775558e-16 3.000000e+00
         vertex 2.050000e+00 1.500000e-01 2.050000e+00
      endloop
   endfacet
   facet normal -9.486833e-01 3.162278e-01 -1.174374e-15
      outer loop
         vertex 2.050000e+00 1.500000e-01 2.050000e+00
         vertex 2.000000e+00 -2.775558e-16 3.000000e+00
         vertex 2.050000e+00 1.500000e-01 3.050000e+00
      endloop
   endfacet
   facet normal -9.486833e-01 3.162278e-01 0.000000e+00
      outer loop
         vertex 2.000000e+00 -2.775558e-16 3.100000e+00
         vertex 2.000000e+00 -2.775558e-16 4.000000e+00
         vertex 2.050000e+00 1.500000e-01 3.050000e+00
      endloop
   endfacet
   facet normal -9.486833e-01 3.162278e-01 5.213588e-16
      outer loop
         vertex 2.050000e+00 1.500000e-01 3.050000e+00
         vertex 2.000000e+00 -2.775558e-16 4.000000e+00
         vertex 2.050000e+00 1.500000e-01 4.050000e+00
      endloop
   endfacet
   facet normal -9.486834e-01 3.162275e-01 0.000000e+00
      outer loop
         vertex 1.000000e+00 -1.665335e-16 3.100000e+00
         vertex 1.000000e+00 -1.665335e-16 4.000000e+00
         vertex 1.050000e+00 1.500000e-01 3.050000e+00
      endloop
   endfacet
   facet normal -9.486834e-01 3.162275e-01 0.000000e+00
      outer loop
         vertex 1.050000e+00 1.500000e-01 3.050000e+00
         vertex 1.000000e+00 -1.665335e-16 4.000000e+00
         vertex 1.050000e+00 1.500000e-01 4.050000e+00
      endloop
   endfacet
   facet normal -9.486834e-01 3.162275e-01 0.000000e+00
      outer loop
         vertex 1.000000e+00 -1.665335e-16 2.100000e+00
         vertex 1.000000e+00 -1.665335e-16 3.000000e+00
         vertex 1.050000e+00 1.500000e-01 2.050000e+00
      endloop
   endfacet
   facet normal -9.486834e-01 3.162275e-01 0.000000e+00
      outer loop
         vertex 1.050000e+00 1.500000e-01 2.050000e+00
         vertex 1.000000e+00 -1.665335e-16 3.000000e+00
         vertex 1.050000e+00 1.500000e-01 3.050000e+00
      endloop
   endfacet
   facet normal -9.486834e-01 3.162275e-01 0.000000e+00
      outer loop
         vertex 1.000000e+00 -1.665335e-16 1.100000e+00
         vertex 1.000000e+00 -1.665335e-16 2.000000e+00
         vertex 1.050000e+00 1.500000e-01 1.050000e+00
      endloop
   endfacet
   facet normal -9.486834e-01 3.162275e-01 0.000000e+00
      outer loop
         vertex 1.050000e+00 1.500000e-01 1.050000e+00
         vertex 1.000000e+00 -1.665335e-16 2.000000e+00
         vertex 1.050000e+00 1.500000e-01 2.050000e+00
      endloop
   endfacet
   facet normal -9.486834e-01 3.162275e-01 0.000000e+00
      outer loop
         vertex 1.000000e+00 -1.665335e-16 9.999995e-02
         vertex 1.000000e+00 -1.665335e-16 1.000000e+00
         vertex 1.050000e+00 1.500000e-01 5.000000e-02
      endloop
   endfacet
   facet normal -9.486834e-01 3.162275e-01 0.000000e+00
      outer loop
         vertex 1.050000e+00 1.500000e-01 5.000000e-02
         vertex 1.000000e+00 -1.665335e-16 1.000000e+00
         vertex 1.050000e+00 1.500000e-01 1.050000e+00
      endloop
   endfacet
   facet normal -9.486834e-01 3.162275e-01 0.000000e+00
      outer loop
         vertex 5.000000e-02 1.500000e-01 5.000000e-02
         vertex 4.768371e-08 -1.665335e-16 4.768372e-08
         vertex 5.000000e-02 1.500000e-01 1.050000e+00
      endloop
   endfacet
   facet normal -9.486834e-01 3.162275e-01 0.000000e+00
      outer loop
         vertex 5.000000e-02 1.500000e-01 1.050000e+00
         vertex 4.768371e-08 -1.665335e-16 4.768372e-08
         vertex 4.768371e-08 -1.665335e-16 1.050000e+00
      endloop
   endfacet
   facet normal -9.486834e-01 3.162275e-01 0.000000e+00
      outer loop
         vertex 5.000000e-02 1.500000e-01 1.050000e+00
         vertex 4.768371e-08 -1.665335e-16 1.050000e+00
         vertex 5.000000e-02 1.500000e-01 2.050000e+00
      endloop
   endfacet
   facet normal -9.486834e-01 3.162275e-01 0.000000e+00
      outer loop
         vertex 5.000000e-02 1.500000e-01 2.050000e+00
         vertex 4.768371e-08 -1.665335e-16 1.050000e+00
         vertex 4.768371e-08 -1.665335e-16 2.050000e+00
      endloop
   endfacet
   facet normal -9.486834e-01 3.162275e-01 0.000000e+00
      outer loop
         vertex 5.000000e-02 1.500000e-01 2.050000e+00
         vertex 4.768371e-08 -1.665335e-16 2.050000e+00
         vertex 5.000000e-02 1.500000e-01 3.050000e+00
      endloop
   endfacet
   facet normal -9.486834e-01 3.162275e-01 0.000000e+00
      outer loop
         vertex 4.768371e-08 -1.665335e-16 4.100000e+00
         vertex 5.000000e-02 1.500000e-01 4.050000e+00
         vertex 4.768371e-08 -1.665335e-16 4.050000e+00
      endloop
   endfacet
   facet normal -9.486834e-01 3.162275e-01 0.000000e+00
      outer loop
         vertex 4.768371e-08 -1.665335e-16 4.050000e+00
         vertex 5.000000e-02 1.500000e-01 4.050000e+00
         vertex 5.000000e-02 1.500000e-01 3.050000e+00
      endloop
   endfacet
   facet normal -9.486834e-01 3.162275e-01 0.000000e+00
      outer loop
         vertex 4.768371e-08 -1.665335e-16 4.050000e+00
         vertex 5.000000e-02 1.500000e-01 3.050000e+00
         vertex 4.768371e-08 -1.665335e-16 3.050000e+00
      endloop
   endfacet
   facet normal -9.486834e-01 3.162275e-01 0.000000e+00
      outer loop
         vertex 4.768371e-08 -1.665335e-16 3.050000e+00
         vertex 5.000000e-02 1.500000e-01 3.050000e+00
         vertex 4.768371e-08 -1.665335e-16 2.050000e+00
      endloop
   endfacet
   facet normal 9.486834e-01 3.162275e-01 -0.000000e+00
      outer loop
         vertex 5.000000e-02 1.500000e-01 5.000000e-02
         vertex 5.000000e-02 1.500000e-01 1.050000e+00
         vertex 9.999995e-02 -1.249001e-16 9.999995e-02
      endloop
   endfacet
   facet normal 9.486834e-01 3.162275e-01 -0.000000e+00
      outer loop
         vertex 9.999995e-02 -1.249001e-16 9.999995e-02
         vertex 5.000000e-02 1.500000e-01 1.050000e+00
         vertex 9.999995e-02 -1.249001e-16 1.000000e+00
      endloop
   endfacet
   facet normal 9.486834e-01 3.162275e-01 -0.000000e+00
      outer loop
         vertex 5.000000e-02 1.500000e-01 1.050000e+00
         vertex 5.000000e-02 1.500000e-01 2.050000e+00
         vertex 9.999995e-02 -1.249001e-16 1.100000e+00
      endloop
   endfacet
   facet normal 9.486834e-01 3.162275e-01 -0.000000e+00
      outer loop
         vertex 9.999995e-02 -1.249001e-16 1.100000e+00
         vertex 5.000000e-02 1.500000e-01 2.050000e+00
         vertex 9.999995e-02 -1.249001e-16 2.000000e+00
      endloop
   endfacet
   facet normal 9.486834e-01 3.162275e-01 -0.000000e+00
      outer loop
         vertex 5.000000e-02 1.500000e-01 2.050000e+00
         vertex 5.000000e-02 1.500000e-01 3.050000e+00
         vertex 9.999995e-02 -1.249001e-16 2.100000e+00
      endloop
   endfacet
   facet normal 9.486834e-01 3.162275e-01 -0.000000e+00
      outer loop
         vertex 9.999995e-02 -1.249001e-16 2.100000e+00
         vertex 5.000000e-02 1.500000e-01 3.050000e+00
         vertex 9.999995e-02 -1.249001e-16 3.000000e+00
      endloop
   endfacet
   facet normal 9.486834e-01 3.162275e-01 -0.000000e+00
      outer loop
         vertex 5.000000e-02 1.500000e-01 3.050000e+00
         vertex 5.000000e-02 1.500000e-01 4.050000e+00
         vertex 9.999995e-02 -1.249001e-16 3.100000e+00
      endloop
   endfacet
   facet normal 9.486834e-01 3.162275e-01 -0.000000e+00
      outer loop
         vertex 9.999995e-02 -1.249001e-16 3.100000e+00
         vertex 5.000000e-02 1.500000e-01 4.050000e+00
         vertex 9.999995e-02 -1.249001e-16 4.000000e+00
      endloop
   endfacet
   facet normal 9.486833e-01 3.162278e-01 0.000000e+00
      outer loop
         vertex 1.050000e+00 1.500000e-01 4.050000e+00
         vertex 1.100000e+00 -2.137179e-16 4.000000e+00
         vertex 1.050000e+00 1.500000e-01 3.050000e+00
      endloop
   endfacet
   facet normal 9.486833e-01 3.162278e-01 0.000000e+00
      outer loop
         vertex 1.050000e+00 1.500000e-01 3.050000e+00
         vertex 1.100000e+00 -2.137179e-16 4.000000e+00
         vertex 1.100000e+00 -2.137179e-16 3.100000e+00
      endloop
   endfacet
   facet normal 9.486833e-01 3.162278e-01 -0.000000e+00
      outer loop
         vertex 1.050000e+00 1.500000e-01 2.050000e+00
         vertex 1.050000e+00 1.500000e-01 3.050000e+00
         vertex 1.100000e+00 -2.137179e-16 2.100000e+00
      endloop
   endfacet
   facet normal 9.486833e-01 3.162278e-01 -0.000000e+00
      outer loop
         vertex 1.100000e+00 -2.137179e-16 2.100000e+00
         vertex 1.050000e+00 1.500000e-01 3.050000e+00
         vertex 1.100000e+00 -2.137179e-16 3.000000e+00
      endloop
   endfacet
   facet normal 9.486833e-01 3.162278e-01 -0.000000e+00
      outer loop
         vertex 1.050000e+00 1.500000e-01 1.050000e+00
         vertex 1.050000e+00 1.500000e-01 2.050000e+00
         vertex 1.100000e+00 -2.137179e-16 1.100000e+00
      endloop
   endfacet
   facet normal 9.486833e-01 3.162278e-01 -0.000000e+00
      outer loop
         vertex 1.100000e+00 -2.137179e-16 1.100000e+00
         vertex 1.050000e+00 1.500000e-01 2.050000e+00
         vertex 1.100000e+00 -2.137179e-16 2.000000e+00
      endloop
   endfacet
   facet normal 9.486833e-01 3.162278e-01 0.000000e+00
      outer loop
         vertex 1.050000e+00 1.500000e-01 1.050000e+00
         vertex 1.100000e+00 -2.137179e-16 1.000000e+00
         vertex 1.050000e+00 1.500000e-01 5.000000e-02
      endloop
   endfacet
   facet normal 9.486833e-01 3.162278e-01 0.000000e+00
      outer loop
         vertex 1.050000e+00 1.500000e-01 5.000000e-02
         vertex 1.100000e+00 -2.137179e-16 1.000000e+00
         vertex 1.100000e+00 -2.137179e-16 9.999995e-02
      endloop
   endfacet
   facet normal 9.486833e-01 3.162278e-01 8.426000e-16
      outer loop
         vertex 2.050000e+00 1.500000e-01 1.050000e+00
         vertex 2.100000e+00 -2.137179e-16 1.000000e+00
         vertex 2.050000e+00 1.500000e-01 5.000000e-02
      endloop
   endfacet
   facet normal 9.486833e-01 3.162278e-01 0.000000e+00
      outer loop
         vertex 2.050000e+00 1.500000e-01 5.000000e-02
         vertex 2.100000e+00 -2.137179e-16 1.000000e+00
         vertex 2.100000e+00 -2.137179e-16 9.999995e-02
      endloop
   endfacet
   facet normal 9.486833e-01 3.162278e-01 -1.645703e-16
      outer loop
         vertex 2.050000e+00 1.500000e-01 1.050000e+00
         vertex 2.050000e+00 1.500000e-01 2.050000e+00
         vertex 2.100000e+00 -2.262079e-16 1.100000e+00
      endloop
   endfacet
   facet normal 9.486833e-01 3.162278e-01 -2.340555e-17
      outer loop
         vertex 2.100000e+00 -2.262079e-16 1.100000e+00
         vertex 2.050000e+00 1.500000e-01 2.050000e+00
         vertex 2.100000e+00 -1.595946e-16 2.000000e+00
      endloop
   endfacet
   facet normal 9.486833e-01 3.162278e-01 -1.178323e-15
      outer loop
         vertex 2.050000e+00 1.500000e-01 2.050000e+00
         vertex 2.050000e+00 1.500000e-01 3.050000e+00
         vertex 2.100000e+00 -1.595946e-16 2.100000e+00
      endloop
   endfacet
   facet normal 9.486833e-01 3.162278e-01 -0.000000e+00
      outer loop
         vertex 2.100000e+00 -1.595946e-16 2.100000e+00
         vertex 2.050000e+00 1.500000e-01 3.050000e+00
         vertex 2.100000e+00 -1.595946e-16 3.000000e+00
      endloop
   endfacet
   facet normal 9.486833e-01 3.162278e-01 5.002938e-16
      outer loop
         vertex 2.050000e+00 1.500000e-01 4.050000e+00
         vertex 2.100000e+00 -1.595946e-16 4.000000e+00
         vertex 2.050000e+00 1.500000e-01 3.050000e+00
      endloop
   endfacet
   facet normal 9.486833e-01 3.162278e-01 0.000000e+00
      outer loop
         vertex 2.050000e+00 1.500000e-01 3.050000e+00
         vertex 2.100000e+00 -1.595946e-16 4.000000e+00
         vertex 2.100000e+00 -1.595946e-16 3.100000e+00
      endloop
   endfacet
   facet normal 9.486834e-01 3.162275e-01 0.000000e+00
      outer loop
         vertex 3.050000e+00 1.500000e-01 4.050000e+00
         vertex 3.100000e+00 -1.915135e-16 4.000000e+00
         vertex 3.050000e+00 1.500000e-01 3.050000e+00
      endloop
   endfacet
   facet normal 9.486834e-01 3.162275e-01 0.000000e+00
      outer loop
         vertex 3.050000e+00 1.500000e-01 3.050000e+00
         vertex 3.100000e+00 -1.915135e-16 4.000000e+00
         vertex 3.100000e+00 -1.915135e-16 3.100000e+00
      endloop
   endfacet
   facet normal 9.486834e-01 3.162275e-01 -0.000000e+00
      outer loop
         vertex 3.050000e+00 1.500000e-01 2.050000e+00
         vertex 3.050000e+00 1.500000e-01 3.050000e+00
         vertex 3.100000e+00 -1.915135e-16 2.100000e+00
      endloop
   endfacet
   facet normal 9.486834e-01 3.162275e-01 -0.000000e+00
      outer loop
         vertex 3.100000e+00 -1.915135e-16 2.100000e+00
         vertex 3.050000e+00 1.500000e-01 3.050000e+00
         vertex 3.100000e+00 -1.915135e-16 3.000000e+00
      endloop
   endfacet
   facet normal 9.486834e-01 3.162275e-01 -0.000000e+00
      outer loop
         vertex 3.050000e+00 1.500000e-01 1.050000e+00
         vertex 3.050000e+00 1.500000e-01 2.050000e+00
         vertex 3.100000e+00 -1.249001e-16 1.100000e+00
      endloop
   endfacet
   facet normal 9.486834e-01 3.162275e-01 2.340554e-17
      outer loop
         vertex 3.100000e+00 -1.249001e-16 1.100000e+00
         vertex 3.050000e+00 1.500000e-01 2.050000e+00
         vertex 3.100000e+00 -1.915135e-16 2.000000e+00
      endloop
   endfacet
   facet normal 9.486834e-01 3.162275e-01 0.000000e+00
      outer loop
         vertex 3.050000e+00 1.500000e-01 1.050000e+00
         vertex 3.100000e+00 -1.249001e-16 1.000000e+00
         vertex 3.050000e+00 1.500000e-01 5.000000e-02
      endloop
   endfacet
   facet normal 9.486834e-01 3.162275e-01 0.000000e+00
      outer loop
         vertex 3.050000e+00 1.500000e-01 5.000000e-02
         vertex 3.100000e+00 -1.249001e-16 1.000000e+00
         vertex 3.100000e+00 -1.249001e-16 9.999995e-02
      endloop
   endfacet
   facet normal 9.486834e-01 3.162275e-01 -0.000000e+00
      outer loop
         vertex 4.100000e+00 -2.137179e-16 4.768372e-08
         vertex 4.050000e+00 1.500000e-01 5.000000e-02
         vertex 4.100000e+00 -2.137179e-16 1.050000e+00
      endloop
   endfacet
   facet normal 9.486834e-01 3.162275e-01 0.000000e+00
      outer loop
         vertex 4.100000e+00 -2.137179e-16 1.050000e+00
         vertex 4.050000e+00 1.500000e-01 5.000000e-02
         vertex 4.050000e+00 1.500000e-01 1.050000e+00
      endloop
   endfacet
   facet normal 9.486834e-01 3.162275e-01 -0.000000e+00
      outer loop
         vertex 4.100000e+00 -2.137179e-16 1.050000e+00
         vertex 4.050000e+00 1.500000e-01 1.050000e+00
         vertex 4.100000e+00 -2.137179e-16 2.050000e+00
      endloop
   endfacet
   facet normal 9.486834e-01 3.162275e-01 0.000000e+00
      outer loop
         vertex 4.100000e+00 -2.137179e-16 2.050000e+00
         vertex 4.050000e+00 1.500000e-01 1.050000e+00
         vertex 4.050000e+00 1.500000e-01 2.050000e+00
      endloop
   endfacet
   facet normal 9.486834e-01 3.162275e-01 -0.000000e+00
      outer loop
         vertex 4.100000e+00 -2.137179e-16 2.050000e+00
         vertex 4.050000e+00 1.500000e-01 2.050000e+00
         vertex 4.100000e+00 -2.137179e-16 3.050000e+00
      endloop
   endfacet
   facet normal 9.486834e-01 3.162275e-01 0.000000e+00
      outer loop
         vertex 4.100000e+00 -2.137179e-16 3.050000e+00
         vertex 4.050000e+00 1.500000e-01 2.050000e+00
         vertex 4.050000e+00 1.500000e-01 3.050000e+00
      endloop
   endfacet
   facet normal 9.486834e-01 3.162275e-01 -0.000000e+00
      outer loop
         vertex 4.100000e+00 -2.137179e-16 3.050000e+00
         vertex 4.050000e+00 1.500000e-01 3.050000e+00
         vertex 4.100000e+00 -2.137179e-16 4.050000e+00
      endloop
   endfacet
   facet normal 9.486834e-01 3.162275e-01 0.000000e+00
      outer loop
         vertex 4.100000e+00 -2.137179e-16 4.050000e+00
         vertex 4.050000e+00 1.500000e-01 3.050000e+00
         vertex 4.050000e+00 1.500000e-01 4.050000e+00
      endloop
   endfacet
   facet normal 9.486834e-01 3.162275e-01 -0.000000e+00
      outer loop
         vertex 4.100000e+00 -2.137179e-16 4.050000e+00
         vertex 4.050000e+00 1.500000e-01 4.050000e+00
         vertex 4.100000e+00 -2.137179e-16 4.100000e+00
      endloop
   endfacet
   facet normal 0.000000e+00 3.162275e-01 -9.486834e-01
      outer loop
         vertex 3.050000e+00 1.500000e-01 4.050000e+00
         vertex 4.050000e+00 1.500000e-01 4.050000e+00
         vertex 3.100000e+00 -5.828671e-17 4.000000e+00
      endloop
   endfacet
   facet normal 2.340553e-17 3.162275e-01 -9.486834e-01
      outer loop
         vertex 3.100000e+00 -5.828671e-17 4.000000e+00
         vertex 4.050000e+00 1.500000e-01 4.050000e+00
         vertex 4.000000e+00 -1.249001e-16 4.000000e+00
      endloop
   endfacet
   facet normal 0.000000e+00 3.162275e-01 -9.486834e-01
      outer loop
         vertex 2.050000e+00 1.500000e-01 4.050000e+00
         vertex 3.050000e+00 1.500000e-01 4.050000e+00
         vertex 2.100000e+00 -5.828671e-17 4.000000e+00
      endloop
   endfacet
   facet normal 0.000000e+00 3.162275e-01 -9.486834e-01
      outer loop
         vertex 2.100000e+00 -5.828671e-17 4.000000e+00
         vertex 3.050000e+00 1.500000e-01 4.050000e+00
         vertex 3.000000e+00 -5.828671e-17 4.000000e+00
      endloop
   endfacet
   facet normal 0.000000e+00 3.162275e-01 -9.486834e-01
      outer loop
         vertex 1.050000e+00 1.500000e-01 4.050000e+00
         vertex 2.050000e+00 1.500000e-01 4.050000e+00
         vertex 1.100000e+00 -5.828671e-17 4.000000e+00
      endloop
   endfacet
   facet normal 0.000000e+00 3.162275e-01 -9.486834e-01
      outer loop
         vertex 1.100000e+00 -5.828671e-17 4.000000e+00
         vertex 2.050000e+00 1.500000e-01 4.050000e+00
         vertex 2.000000e+00 -5.828671e-17 4.000000e+00
      endloop
   endfacet
   facet normal 0.000000e+00 3.162275e-01 -9.486834e-01
      outer loop
         vertex 1.050000e+00 1.500000e-01 4.050000e+00
         vertex 1.000000e+00 -1.249001e-16 4.000000e+00
         vertex 5.000000e-02 1.500000e-01 4.050000e+00
      endloop
   endfacet
   facet normal 0.000000e+00 3.162275e-01 -9.486834e-01
      outer loop
         vertex 5.000000e-02 1.500000e-01 4.050000e+00
         vertex 1.000000e+00 -1.249001e-16 4.000000e+00
         vertex 9.999995e-02 -1.249001e-16 4.000000e+00
      endloop
   endfacet
   facet normal 0.000000e+00 3.162278e-01 -9.486833e-01
      outer loop
         vertex 1.050000e+00 1.500000e-01 3.050000e+00
         vertex 1.000000e+00 -9.325873e-17 3.000000e+00
         vertex 5.000000e-02 1.500000e-01 3.050000e+00
      endloop
   endfacet
   facet normal -6.095196e-18 3.162278e-01 -9.486833e-01
      outer loop
         vertex 5.000000e-02 1.500000e-01 3.050000e+00
         vertex 1.000000e+00 -9.325873e-17 3.000000e+00
         vertex 9.999995e-02 -1.232348e-16 3.000000e+00
      endloop
   endfacet
   facet normal 0.000000e+00 3.162278e-01 -9.486833e-01
      outer loop
         vertex 2.050000e+00 1.500000e-01 3.050000e+00
         vertex 2.000000e+00 -1.265654e-16 3.000000e+00
         vertex 1.050000e+00 1.500000e-01 3.050000e+00
      endloop
   endfacet
   facet normal -1.219039e-17 3.162278e-01 -9.486833e-01
      outer loop
         vertex 1.050000e+00 1.500000e-01 3.050000e+00
         vertex 2.000000e+00 -1.265654e-16 3.000000e+00
         vertex 1.100000e+00 -1.565414e-16 3.000000e+00
      endloop
   endfacet
   facet normal 0.000000e+00 3.162278e-01 -9.486833e-01
      outer loop
         vertex 3.050000e+00 1.500000e-01 3.050000e+00
         vertex 3.000000e+00 -9.325873e-17 3.000000e+00
         vertex 2.050000e+00 1.500000e-01 3.050000e+00
      endloop
   endfacet
   facet normal -6.095197e-18 3.162278e-01 -9.486833e-01
      outer loop
         vertex 2.050000e+00 1.500000e-01 3.050000e+00
         vertex 3.000000e+00 -9.325873e-17 3.000000e+00
         vertex 2.100000e+00 -1.232348e-16 3.000000e+00
      endloop
   endfacet
   facet normal 0.000000e+00 3.162278e-01 -9.486833e-01
      outer loop
         vertex 4.050000e+00 1.500000e-01 3.050000e+00
         vertex 4.000000e+00 -9.325873e-17 3.000000e+00
         vertex 3.050000e+00 1.500000e-01 3.050000e+00
      endloop
   endfacet
   facet normal -6.095196e-18 3.162278e-01 -9.486833e-01
      outer loop
         vertex 3.050000e+00 1.500000e-01 3.050000e+00
         vertex 4.000000e+00 -9.325873e-17 3.000000e+00
         vertex 3.100000e+00 -1.232348e-16 3.000000e+00
      endloop
   endfacet
   facet normal -2.962266e-16 3.162278e-01 -9.486833e-01
      outer loop
         vertex 1.050000e+00 1.500000e-01 2.050000e+00
         vertex 1.000000e+00 -2.137179e-16 2.000000e+00
         vertex 5.000000e-02 1.500000e-01 2.050000e+00
      endloop
   endfacet
   facet normal 0.000000e+00 3.162278e-01 -9.486833e-01
      outer loop
         vertex 5.000000e-02 1.500000e-01 2.050000e+00
         vertex 1.000000e+00 -2.137179e-16 2.000000e+00
         vertex 9.999995e-02 -2.137179e-16 2.000000e+00
      endloop
   endfacet
   facet normal 8.886797e-16 3.162278e-01 -9.486833e-01
      outer loop
         vertex 2.050000e+00 1.500000e-01 2.050000e+00
         vertex 2.000000e+00 -2.262079e-16 2.000000e+00
         vertex 1.050000e+00 1.500000e-01 2.050000e+00
      endloop
   endfacet
   facet normal 0.000000e+00 3.162278e-01 -9.486833e-01
      outer loop
         vertex 1.050000e+00 1.500000e-01 2.050000e+00
         vertex 2.000000e+00 -2.262079e-16 2.000000e+00
         vertex 1.100000e+00 -2.262079e-16 2.000000e+00
      endloop
   endfacet
   facet normal -5.529563e-16 3.162278e-01 -9.486833e-01
      outer loop
         vertex 3.050000e+00 1.500000e-01 2.050000e+00
         vertex 3.000000e+00 -2.137179e-16 2.000000e+00
         vertex 2.050000e+00 1.500000e-01 2.050000e+00
      endloop
   endfacet
   facet normal 0.000000e+00 3.162278e-01 -9.486833e-01
      outer loop
         vertex 2.050000e+00 1.500000e-01 2.050000e+00
         vertex 3.000000e+00 -2.137179e-16 2.000000e+00
         vertex 2.100000e+00 -2.137179e-16 2.000000e+00
      endloop
   endfacet
   facet normal -3.949688e-17 3.162278e-01 -9.486833e-01
      outer loop
         vertex 4.050000e+00 1.500000e-01 2.050000e+00
         vertex 4.000000e+00 -2.137179e-16 2.000000e+00
         vertex 3.050000e+00 1.500000e-01 2.050000e+00
      endloop
   endfacet
   facet normal 0.000000e+00 3.162278e-01 -9.486833e-01
      outer loop
         vertex 3.050000e+00 1.500000e-01 2.050000e+00
         vertex 4.000000e+00 -2.137179e-16 2.000000e+00
         vertex 3.100000e+00 -2.137179e-16 2.000000e+00
      endloop
   endfacet
   facet normal 0.000000e+00 3.162275e-01 -9.486834e-01
      outer loop
         vertex 1.050000e+00 1.500000e-01 1.050000e+00
         vertex 1.000000e+00 -9.325873e-17 1.000000e+00
         vertex 5.000000e-02 1.500000e-01 1.050000e+00
      endloop
   endfacet
   facet normal -6.095197e-18 3.162275e-01 -9.486834e-01
      outer loop
         vertex 5.000000e-02 1.500000e-01 1.050000e+00
         vertex 1.000000e+00 -9.325873e-17 1.000000e+00
         vertex 9.999995e-02 -1.232348e-16 1.000000e+00
      endloop
   endfacet
   facet normal 0.000000e+00 3.162275e-01 -9.486834e-01
      outer loop
         vertex 2.050000e+00 1.500000e-01 1.050000e+00
         vertex 2.000000e+00 -1.265654e-16 1.000000e+00
         vertex 1.050000e+00 1.500000e-01 1.050000e+00
      endloop
   endfacet
   facet normal -1.219039e-17 3.162275e-01 -9.486834e-01
      outer loop
         vertex 1.050000e+00 1.500000e-01 1.050000e+00
         vertex 2.000000e+00 -1.265654e-16 1.000000e+00
         vertex 1.100000e+00 -1.565414e-16 1.000000e+00
      endloop
   endfacet
   facet normal 0.000000e+00 3.162275e-01 -9.486834e-01
      outer loop
         vertex 3.050000e+00 1.500000e-01 1.050000e+00
         vertex 3.000000e+00 -9.325873e-17 1.000000e+00
         vertex 2.050000e+00 1.500000e-01 1.050000e+00
      endloop
   endfacet
   facet normal -6.095197e-18 3.162275e-01 -9.486834e-01
      outer loop
         vertex 2.050000e+00 1.500000e-01 1.050000e+00
         vertex 3.000000e+00 -9.325873e-17 1.000000e+00
         vertex 2.100000e+00 -1.232348e-16 1.000000e+00
      endloop
   endfacet
   facet normal 0.000000e+00 3.162275e-01 -9.486834e-01
      outer loop
         vertex 4.050000e+00 1.500000e-01 1.050000e+00
         vertex 4.000000e+00 -1.265654e-16 1.000000e+00
         vertex 3.050000e+00 1.500000e-01 1.050000e+00
      endloop
   endfacet
   facet normal -1.219039e-17 3.162275e-01 -9.486834e-01
      outer loop
         vertex 3.050000e+00 1.500000e-01 1.050000e+00
         vertex 4.000000e+00 -1.265654e-16 1.000000e+00
         vertex 3.100000e+00 -1.565414e-16 1.000000e+00
      endloop
   endfacet
   facet normal 0.000000e+00 3.162275e-01 -9.486834e-01
      outer loop
         vertex 4.768371e-08 -1.249001e-16 4.768372e-08
         vertex 5.000000e-02 1.500000e-01 5.000000e-02
         vertex 5.000000e-02 -1.249001e-16 4.768372e-08
      endloop
   endfacet
   facet normal 0.000000e+00 3.162275e-01 -9.486834e-01
      outer loop
         vertex 5.000000e-02 -1.249001e-16 4.768372e-08
         vertex 5.000000e-02 1.500000e-01 5.000000e-02
         vertex 1.050000e+00 1.500000e-01 5.000000e-02
      endloop
   endfacet
   facet normal 0.000000e+00 3.162275e-01 -9.486834e-01
      outer loop
         vertex 4.050000e+00 1.500000e-01 5.000000e-02
         vertex 4.100000e+00 -1.249001e-16 4.768372e-08
         vertex 3.050000e+00 1.500000e-01 5.000000e-02
      endloop
   endfacet
   facet normal 0.000000e+00 3.162275e-01 -9.486834e-01
      outer loop
         vertex 3.050000e+00 1.500000e-01 5.000000e-02
         vertex 4.100000e+00 -1.249001e-16 4.768372e-08
         vertex 3.050000e+00 -1.249001e-16 4.768372e-08
      endloop
   endfacet
   facet normal 0.000000e+00 3.162275e-01 -9.486834e-01
      outer loop
         vertex 3.050000e+00 1.500000e-01 5.000000e-02
         vertex 3.050000e+00 -1.249001e-16 4.768372e-08
         vertex 2.050000e+00 1.500000e-01 5.000000e-02
      endloop
   endfacet
   facet normal 0.000000e+00 3.162275e-01 -9.486834e-01
      outer loop
         vertex 2.050000e+00 1.500000e-01 5.000000e-02
         vertex 3.050000e+00 -1.249001e-16 4.768372e-08
         vertex 2.050000e+00 -1.249001e-16 4.768372e-08
      endloop
   endfacet
   facet normal 0.000000e+00 3.162275e-01 -9.486834e-01
      outer loop
         vertex 2.050000e+00 1.500000e-01 5.000000e-02
         vertex 2.050000e+00 -1.249001e-16 4.768372e-08
         vertex 1.050000e+00 1.500000e-01 5.000000e-02
      endloop
   endfacet
   facet normal 0.000000e+00 3.162275e-01 -9.486834e-01
      outer loop
         vertex 1.050000e+00 1.500000e-01 5.000000e-02
         vertex 2.050000e+00 -1.249001e-16 4.768372e-08
         vertex 1.050000e+00 -1.249001e-16 4.768372e-08
      endloop
   endfacet
   facet normal 0.000000e+00 3.162275e-01 -9.486834e-01
      outer loop
         vertex 1.050000e+00 1.500000e-01 5.000000e-02
         vertex 1.050000e+00 -1.249001e-16 4.768372e-08
         vertex 5.000000e-02 -1.249001e-16 4.768372e-08
      endloop
   endfacet
   facet normal 0.000000e+00 3.162275e-01 9.486834e-01
      outer loop
         vertex 1.050000e+00 1.500000e-01 5.000000e-02
         vertex 5.000000e-02 1.500000e-01 5.000000e-02
         vertex 1.000000e+00 -1.942890e-16 9.999995e-02
      endloop
   endfacet
   facet normal 0.000000e+00 3.162275e-01 9.486834e-01
      outer loop
         vertex 1.000000e+00 -1.942890e-16 9.999995e-02
         vertex 5.000000e-02 1.500000e-01 5.000000e-02
         vertex 9.999995e-02 -1.942890e-16 9.999995e-02
      endloop
   endfacet
   facet normal 0.000000e+00 3.162275e-01 9.486834e-01
      outer loop
         vertex 2.050000e+00 1.500000e-01 5.000000e-02
         vertex 1.050000e+00 1.500000e-01 5.000000e-02
         vertex 2.000000e+00 -1.942890e-16 9.999995e-02
      endloop
   endfacet
   facet normal 0.000000e+00 3.162275e-01 9.486834e-01
      outer loop
         vertex 2.000000e+00 -1.942890e-16 9.999995e-02
         vertex 1.050000e+00 1.500000e-01 5.000000e-02
         vertex 1.100000e+00 -1.942890e-16 9.999995e-02
      endloop
   endfacet
   facet normal 0.000000e+00 3.162275e-01 9.486834e-01
      outer loop
         vertex 3.050000e+00 1.500000e-01 5.000000e-02
         vertex 2.050000e+00 1.500000e-01 5.000000e-02
         vertex 3.000000e+00 -1.942890e-16 9.999995e-02
      endloop
   endfacet
   facet normal 0.000000e+00 3.162275e-01 9.486834e-01
      outer loop
         vertex 3.000000e+00 -1.942890e-16 9.999995e-02
         vertex 2.050000e+00 1.500000e-01 5.000000e-02
         vertex 2.100000e+00 -1.942890e-16 9.999995e-02
      endloop
   endfacet
   facet normal 0.000000e+00 3.162275e-01 9.486834e-01
      outer loop
         vertex 4.000000e+00 -1.942890e-16 9.999995e-02
         vertex 4.050000e+00 1.500000e-01 5.000000e-02
         vertex 3.100000e+00 -1.942890e-16 9.999995e-02
      endloop
   endfacet
   facet normal 0.000000e+00 3.162275e-01 9.486834e-01
      outer loop
         vertex 3.100000e+00 -1.942890e-16 9.999995e-02
         vertex 4.050000e+00 1.500000e-01 5.000000e-02
         vertex 3.050000e+00 1.500000e-01 5.000000e-02
      endloop
   endfacet
   facet normal -0.000000e+00 3.162278e-01 9.486833e-01
      outer loop
         vertex 3.050000e+00 1.500000e-01 1.050000e+00
         vertex 3.100000e+00 -1.942890e-16 1.100000e+00
         vertex 4.050000e+00 1.500000e-01 1.050000e+00
      endloop
   endfacet
   facet normal 1.219039e-17 3.162278e-01 9.486833e-01
      outer loop
         vertex 4.050000e+00 1.500000e-01 1.050000e+00
         vertex 3.100000e+00 -1.942890e-16 1.100000e+00
         vertex 4.000000e+00 -2.220446e-16 1.100000e+00
      endloop
   endfacet
   facet normal -0.000000e+00 3.162278e-01 9.486833e-01
      outer loop
         vertex 2.050000e+00 1.500000e-01 1.050000e+00
         vertex 2.100000e+00 -1.942890e-16 1.100000e+00
         vertex 3.050000e+00 1.500000e-01 1.050000e+00
      endloop
   endfacet
   facet normal 1.219039e-17 3.162278e-01 9.486833e-01
      outer loop
         vertex 3.050000e+00 1.500000e-01 1.050000e+00
         vertex 2.100000e+00 -1.942890e-16 1.100000e+00
         vertex 3.000000e+00 -2.220446e-16 1.100000e+00
      endloop
   endfacet
   facet normal -0.000000e+00 3.162278e-01 9.486833e-01
      outer loop
         vertex 1.050000e+00 1.500000e-01 1.050000e+00
         vertex 1.100000e+00 -1.665335e-16 1.100000e+00
         vertex 2.050000e+00 1.500000e-01 1.050000e+00
      endloop
   endfacet
   facet normal 6.095197e-18 3.162278e-01 9.486833e-01
      outer loop
         vertex 2.050000e+00 1.500000e-01 1.050000e+00
         vertex 1.100000e+00 -1.665335e-16 1.100000e+00
         vertex 2.000000e+00 -1.942890e-16 1.100000e+00
      endloop
   endfacet
   facet normal -9.752316e-18 3.162278e-01 9.486833e-01
      outer loop
         vertex 1.000000e+00 -1.665335e-16 1.100000e+00
         vertex 1.050000e+00 1.500000e-01 1.050000e+00
         vertex 9.999995e-02 -1.942890e-16 1.100000e+00
      endloop
   endfacet
   facet normal 0.000000e+00 3.162278e-01 9.486833e-01
      outer loop
         vertex 9.999995e-02 -1.942890e-16 1.100000e+00
         vertex 1.050000e+00 1.500000e-01 1.050000e+00
         vertex 5.000000e-02 1.500000e-01 1.050000e+00
      endloop
   endfacet
   facet normal -5.291754e-17 3.162278e-01 9.486833e-01
      outer loop
         vertex 3.050000e+00 1.500000e-01 2.050000e+00
         vertex 3.100000e+00 -3.053113e-16 2.100000e+00
         vertex 4.050000e+00 1.500000e-01 2.050000e+00
      endloop
   endfacet
   facet normal 0.000000e+00 3.162278e-01 9.486833e-01
      outer loop
         vertex 4.050000e+00 1.500000e-01 2.050000e+00
         vertex 3.100000e+00 -3.053113e-16 2.100000e+00
         vertex 4.000000e+00 -3.053113e-16 2.100000e+00
      endloop
   endfacet
   facet normal -6.846125e-16 3.162278e-01 9.486833e-01
      outer loop
         vertex 2.050000e+00 1.500000e-01 2.050000e+00
         vertex 2.100000e+00 -3.053113e-16 2.100000e+00
         vertex 3.050000e+00 1.500000e-01 2.050000e+00
      endloop
   endfacet
   facet normal 0.000000e+00 3.162278e-01 9.486833e-01
      outer loop
         vertex 3.050000e+00 1.500000e-01 2.050000e+00
         vertex 2.100000e+00 -3.053113e-16 2.100000e+00
         vertex 3.000000e+00 -3.053113e-16 2.100000e+00
      endloop
   endfacet
   facet normal 1.112495e-15 3.162278e-01 9.486833e-01
      outer loop
         vertex 1.050000e+00 1.500000e-01 2.050000e+00
         vertex 1.100000e+00 -3.330669e-16 2.100000e+00
         vertex 2.050000e+00 1.500000e-01 2.050000e+00
      endloop
   endfacet
   facet normal 0.000000e+00 3.162278e-01 9.486833e-01
      outer loop
         vertex 2.050000e+00 1.500000e-01 2.050000e+00
         vertex 1.100000e+00 -3.330669e-16 2.100000e+00
         vertex 2.000000e+00 -3.330669e-16 2.100000e+00
      endloop
   endfacet
   facet normal 9.752314e-18 3.162278e-01 9.486833e-01
      outer loop
         vertex 1.000000e+00 -3.330669e-16 2.100000e+00
         vertex 1.050000e+00 1.500000e-01 2.050000e+00
         vertex 9.999995e-02 -3.053113e-16 2.100000e+00
      endloop
   endfacet
   facet normal -3.785117e-16 3.162278e-01 9.486833e-01
      outer loop
         vertex 9.999995e-02 -3.053113e-16 2.100000e+00
         vertex 1.050000e+00 1.500000e-01 2.050000e+00
         vertex 5.000000e-02 1.500000e-01 2.050000e+00
      endloop
   endfacet
   facet normal 0.000000e+00 3.162275e-01 9.486834e-01
      outer loop
         vertex 1.050000e+00 1.500000e-01 3.050000e+00
         vertex 5.000000e-02 1.500000e-01 3.050000e+00
         vertex 1.000000e+00 -3.053113e-16 3.100000e+00
      endloop
   endfacet
   facet normal -9.752305e-18 3.162275e-01 9.486834e-01
      outer loop
         vertex 1.000000e+00 -3.053113e-16 3.100000e+00
         vertex 5.000000e-02 1.500000e-01 3.050000e+00
         vertex 9.999995e-02 -3.330669e-16 3.100000e+00
      endloop
   endfacet
   facet normal 0.000000e+00 3.162275e-01 9.486834e-01
      outer loop
         vertex 2.050000e+00 1.500000e-01 3.050000e+00
         vertex 1.050000e+00 1.500000e-01 3.050000e+00
         vertex 2.000000e+00 -3.330669e-16 3.100000e+00
      endloop
   endfacet
   facet normal 9.752307e-18 3.162275e-01 9.486834e-01
      outer loop
         vertex 2.000000e+00 -3.330669e-16 3.100000e+00
         vertex 1.050000e+00 1.500000e-01 3.050000e+00
         vertex 1.100000e+00 -3.053113e-16 3.100000e+00
      endloop
   endfacet
   facet normal 0.000000e+00 3.162275e-01 9.486834e-01
      outer loop
         vertex 3.050000e+00 1.500000e-01 3.050000e+00
         vertex 2.050000e+00 1.500000e-01 3.050000e+00
         vertex 3.000000e+00 -3.608225e-16 3.100000e+00
      endloop
   endfacet
   facet normal 9.752307e-18 3.162275e-01 9.486834e-01
      outer loop
         vertex 3.000000e+00 -3.608225e-16 3.100000e+00
         vertex 2.050000e+00 1.500000e-01 3.050000e+00
         vertex 2.100000e+00 -3.330669e-16 3.100000e+00
      endloop
   endfacet
   facet normal 9.752305e-18 3.162275e-01 9.486834e-01
      outer loop
         vertex 4.000000e+00 -3.053113e-16 3.100000e+00
         vertex 4.050000e+00 1.500000e-01 3.050000e+00
         vertex 3.100000e+00 -2.775558e-16 3.100000e+00
      endloop
   endfacet
   facet normal 0.000000e+00 3.162275e-01 9.486834e-01
      outer loop
         vertex 3.100000e+00 -2.775558e-16 3.100000e+00
         vertex 4.050000e+00 1.500000e-01 3.050000e+00
         vertex 3.050000e+00 1.500000e-01 3.050000e+00
      endloop
   endfacet
   facet normal 0.000000e+00 3.162275e-01 9.486834e-01
      outer loop
         vertex 4.100000e+00 -1.665335e-16 4.100000e+00
         vertex 4.050000e+00 1.500000e-01 4.050000e+00
         vertex 3.050000e+00 -1.665335e-16 4.100000e+00
      endloop
   endfacet
   facet normal 0.000000e+00 3.162275e-01 9.486834e-01
      outer loop
         vertex 3.050000e+00 -1.665335e-16 4.100000e+00
         vertex 4.050000e+00 1.500000e-01 4.050000e+00
         vertex 3.050000e+00 1.500000e-01 4.050000e+00
      endloop
   endfacet
   facet normal 0.000000e+00 3.162275e-01 9.486834e-01
      outer loop
         vertex 3.050000e+00 -1.665335e-16 4.100000e+00
         vertex 3.050000e+00 1.500000e-01 4.050000e+00
         vertex 2.050000e+00 -1.665335e-16 4.100000e+00
      endloop
   endfacet
   facet normal 0.000000e+00 3.162275e-01 9.486834e-01
      outer loop
         vertex 2.050000e+00 -1.665335e-16 4.100000e+00
         vertex 3.050000e+00 1.500000e-01 4.050000e+00
         vertex 2.050000e+00 1.500000e-01 4.050000e+00
      endloop
   endfacet
   facet normal 0.000000e+00 3.162275e-01 9.486834e-01
      outer loop
         vertex 2.050000e+00 -1.665335e-16 4.100000e+00
         vertex 2.050000e+00 1.500000e-01 4.050000e+00
         vertex 1.050000e+00 -1.665335e-16 4.100000e+00
      endloop
   endfacet
   facet normal 0.000000e+00 3.162275e-01 9.486834e-01
      outer loop
         vertex 1.050000e+00 -1.665335e-16 4.100000e+00
         vertex 2.050000e+00 1.500000e-01 4.050000e+00
         vertex 1.050000e+00 1.500000e-01 4.050000e+00
      endloop
   endfacet
   facet normal 0.000000e+00 3.162275e-01 9.486834e-01
      outer loop
         vertex 1.050000e+00 -1.665335e-16 4.100000e+00
         vertex 1.050000e+00 1.500000e-01 4.050000e+00
         vertex 5.000000e-02 -1.665335e-16 4.100000e+00
      endloop
   endfacet
   facet normal 0.000000e+00 3.162275e-01 9.486834e-01
      outer loop
         vertex 5.000000e-02 -1.665335e-16 4.100000e+00
         vertex 1.050000e+00 1.500000e-01 4.050000e+00
         vertex 5.000000e-02 1.500000e-01 4.050000e+00
      endloop
   endfacet
   facet normal 0.000000e+00 3.162275e-01 9.486834e-01
      outer loop
         vertex 5.000000e-02 -1.665335e-16 4.100000e+00
         vertex 5.000000e-02 1.500000e-01 4.050000e+00
         vertex 4.768371e-08 -1.665335e-16 4.100000e+00
      endloop
   endfacet
endsolid